<svg width="204" height="100" viewBox="0 0 204 100" fill="none" xmlns="http://www.w3.org/2000/svg">
<g clip-path="url(#clip0_273_845)">
<path d="M19.4545 21C23.6364 21 24.9091 23.8434 26 26.6867C26.5455 27.9307 37.0909 56.5422 37.4545 57.253C37.4545 57.4307 37.4545 57.9639 37.0909 57.9639C36.7273 58.1416 31.0909 60.2741 30.9091 60.2741C30.5455 60.4518 30.1818 60.2741 30.1818 59.9187C30.1818 59.5633 27.6364 53.6988 27.2727 52.988C26.5455 52.988 12.1818 52.988 11.4545 52.988C11.2727 53.6988 8.90909 59.9187 8.72727 60.2741C8.54545 60.6295 8.36364 60.8072 8 60.6295C7.63636 60.4518 2.18182 58.3193 1.81818 58.1416C1.45455 57.9639 1.27273 57.6084 1.45455 57.4307C1.81818 56.3645 12.3636 28.2861 12.9091 26.6867C14 23.8434 15.2727 21 19.4545 21ZM0.545455 72.1807C0.181818 72.1807 0 72.5361 0 72.7139V79.4669C0 79.8223 0.181818 80 0.545455 80H38.1818C38.5455 80 38.7273 79.6446 38.7273 79.4669V72.7139C38.7273 72.3584 38.5455 72.1807 38.1818 72.1807H0.545455ZM19.2727 30.241L14 45.8795H24.7273L19.2727 30.241ZM159.091 53.3434C159.091 55.1205 158 56.3645 156.182 56.3645C155.455 56.3645 154.909 56.3645 153.818 56.1867V50.8554C154.182 50.8554 155.091 50.6777 156.182 50.6777C158 50.5 159.091 51.3886 159.091 53.3434ZM162.909 53.1657C162.909 49.7892 160.909 47.6566 156.727 47.6566C155.636 47.6566 154.909 47.8343 153.818 48.012V43.2139C154.545 43.0361 155.636 43.0361 156.909 43.0361C158.182 43.0361 159.636 43.0361 161.091 43.2139L161.273 40.5482C159.818 40.1928 157.455 40.0151 155.818 40.0151C154.182 40.0151 151.455 40.3705 150.182 40.7259V58.3193C152.182 59.0301 154 59.3855 156 59.3855C160.545 59.2078 162.909 56.8976 162.909 53.1657ZM119.636 52.0994C119.636 54.5873 118.727 56.1867 116.909 56.1867C116.182 56.1867 115.818 56.1867 115.091 55.8313V48.5452C116 48.1898 116.364 48.1898 117.091 48.1898C118.909 48.1898 119.636 49.4337 119.636 52.0994ZM107.273 52.2771C107.273 49.6114 108.182 48.1898 109.818 48.1898C110.545 48.1898 110.909 48.1898 111.818 48.5452V55.8313C111.091 56.009 110.727 56.1867 110 56.1867C108 56.1867 107.273 54.5873 107.273 52.2771ZM115.273 63.2952V58.497C115.636 58.6747 116.545 59.2078 118.182 59.2078C121.273 59.2078 123.455 56.7199 123.455 52.2771C123.455 47.4789 121.273 45.3464 117.636 45.3464C116.727 45.3464 116.182 45.5241 115.273 45.7018V40.0151H111.636V45.7018C110.909 45.3464 110.364 45.3464 109.273 45.3464C105.636 45.3464 103.455 47.4789 103.455 52.2771C103.455 56.7199 105.455 59.2078 108.727 59.2078C110.182 59.2078 111.091 58.8524 111.636 58.497V63.2952H115.273ZM88.1818 58.8524V46.0572C86.1818 45.5241 84.7273 45.1687 82.7273 45.1687C80.7273 45.1687 79.2727 45.3464 77.2727 46.0572V52.6325C77.2727 54.4096 77.2727 54.9428 77.0909 55.4759C76.9091 56.009 76.5455 56.5422 75.8182 57.0753L76.7273 59.2078C79.6364 58.497 80.7273 57.253 80.7273 53.3434V48.5452C81.6364 48.3675 81.8182 48.3675 82.5455 48.3675C83.2727 48.3675 83.4546 48.3675 84.3636 48.5452V59.0301H88.1818V58.8524ZM132.182 56.009C131.455 56.1867 130.909 56.3645 130.182 56.3645C128.909 56.3645 128.182 55.8313 128.182 54.5873C128.182 53.1657 129.091 52.8102 130.909 52.8102C131.273 52.8102 131.818 52.8102 132 52.988V53.8765C132 54.9428 132.182 55.6536 132.182 56.009ZM136.727 57.6084C135.818 56.1867 135.455 55.2982 135.455 53.6988V50.1446C135.455 48.1898 135.273 47.4789 134.727 46.7681C134 45.7018 132.727 45.3464 130.545 45.3464C128.909 45.3464 127.455 45.5241 126 45.8795L126.545 48.3675C127.636 48.1898 128.545 48.1898 129.273 48.1898C131.636 48.1898 132 48.5452 132 50.3223V51.0331C131.455 50.8554 130.909 50.8554 130.182 50.8554C126.545 50.8554 124.727 52.6325 124.727 55.2982C124.727 57.9639 126.727 59.3855 129.273 59.3855C130.182 59.3855 131.091 59.2078 131.818 58.8524C132.182 58.6747 132.545 58.497 133.091 58.1416C133.455 58.6747 134.182 59.2078 134.364 59.2078L136.727 57.6084ZM171.636 56.009C170.909 56.1867 170.364 56.3645 169.636 56.3645C168.364 56.3645 167.636 55.8313 167.636 54.5873C167.636 53.1657 168.545 52.8102 170.364 52.8102C170.727 52.8102 171.273 52.8102 171.455 52.988V53.8765C171.455 54.9428 171.455 55.6536 171.636 56.009ZM176.182 57.6084C175.273 56.1867 174.909 55.2982 174.909 53.6988V50.1446C174.909 48.1898 174.727 47.4789 174.182 46.7681C173.455 45.7018 172.182 45.3464 170 45.3464C168.364 45.3464 166.909 45.5241 165.455 45.8795L166 48.3675C167.091 48.1898 168 48.1898 168.727 48.1898C171.091 48.1898 171.273 48.5452 171.273 50.3223V51.0331C170.727 50.8554 170.182 50.8554 169.455 50.8554C165.818 50.8554 164 52.6325 164 55.2982C164 57.9639 166 59.3855 168.545 59.3855C169.455 59.3855 170.364 59.2078 171.091 58.8524C171.636 58.6747 171.818 58.497 172.364 58.1416C172.727 58.6747 173.455 59.2078 173.818 59.2078L176.182 57.6084ZM98.3636 54.2319C98.3636 55.4759 97.8182 56.3645 96.1818 56.3645C95.6364 56.3645 95.4546 56.3645 94.5455 56.1867V52.2771C95.4546 52.0994 95.6364 52.0994 96.1818 52.0994C97.8182 52.2771 98.3636 52.988 98.3636 54.2319ZM91.0909 45.5241V58.3193C92.7273 59.0301 94.7273 59.3855 96.3636 59.3855C100.182 59.3855 102.182 57.4307 102.182 54.2319C102.182 51.3886 100.364 49.6114 97.0909 49.6114C96.1818 49.6114 95.8182 49.7892 94.7273 49.9669V45.7018H91.0909V45.5241ZM189.273 58.8524V45.5241H185.636V50.5H181.636V45.5241H178V58.8524H181.636V53.3434H185.636V58.8524H189.273ZM204 58.8524C204 58.8524 202 54.7651 201.636 53.8765C201.091 52.8102 200.545 52.0994 199.455 51.9217C200.182 51.744 200.727 51.3886 201.455 49.9669C202 48.7229 202.182 48.3675 202.545 48.012C202.909 47.6566 203.455 47.8343 203.455 47.8343L203.636 45.3464C203.091 45.3464 202.545 45.3464 202 45.3464C201.091 45.3464 200.545 45.7018 200 46.0572C199.636 46.4127 199.455 46.9458 199.091 47.6566C198.727 48.3675 198.545 48.9006 198.182 49.6114C197.818 50.3223 197.636 50.6777 196.727 50.6777H196.182V45.7018H192.545V59.0301H196.182V53.5211H196.727C197.818 53.5211 198 53.6988 198.545 54.7651C199.273 56.009 200.364 58.8524 200.364 58.8524H204ZM70.7273 58.8524H74.9091L68.7273 40.1928C68 40.0151 67.2727 39.8374 66.3636 39.8374C65.4545 39.8374 65.0909 40.0151 64.3636 40.1928L57.8182 58.8524H61.8182C61.8182 58.8524 62.3636 57.253 62.9091 55.1205H69.8182C70.1818 57.253 70.7273 58.8524 70.7273 58.8524ZM63.8182 52.0994C63.8182 52.0994 64.9091 48.3675 65.0909 47.8343C65.6364 46.2349 66.1818 43.9247 66.1818 43.9247H66.3636C66.3636 43.9247 66.9091 46.4127 67.4545 47.8343C67.6364 48.3675 68.7273 52.0994 68.7273 52.0994H63.8182ZM142.909 49.9669C141.636 49.9669 140.545 51.0331 140.545 52.2771C140.545 53.5211 141.636 54.5873 142.909 54.5873C144.182 54.5873 145.273 53.5211 145.273 52.2771C145.091 51.0331 144.182 49.9669 142.909 49.9669Z" fill="#E52713"/>
</g>
<defs>
<clipPath id="clip0_273_845">
<rect width="204" height="59" fill="white" transform="translate(0 21)"/>
</clipPath>
</defs>
</svg>
