<svg width="260" height="100" viewBox="0 0 260 100" fill="none" xmlns="http://www.w3.org/2000/svg">
<path fill-rule="evenodd" clip-rule="evenodd" d="M54.4955 50.0919C54.4955 65.5441 42.3854 78.0531 27.523 78.0531C12.6606 78.0531 0.550537 65.5441 0.550537 50.0919C0.550537 34.6397 12.4771 22.1307 27.523 22.1307C42.3854 22.1307 54.4955 34.6397 54.4955 50.0919Z" fill="white"/>
<path fill-rule="evenodd" clip-rule="evenodd" d="M0.917431 50.092C0.917431 34.8237 12.844 22.4988 27.5229 22.4988C42.2018 22.4988 53.945 34.8237 53.945 49.9081C53.945 64.9924 42.0184 77.3174 27.5229 77.3174C12.844 77.5013 0.917431 65.1763 0.917431 50.092ZM0 50.092C0 65.7282 12.2936 78.4211 27.5229 78.4211C42.7523 78.4211 55.0459 65.7282 55.0459 49.9081C54.8624 34.2719 42.5688 21.579 27.5229 21.579C12.2936 21.579 0 34.2719 0 50.092Z" fill="#224E75"/>
<path fill-rule="evenodd" clip-rule="evenodd" d="M44.9542 47.1487C44.7707 47.3326 44.5872 47.5166 44.2202 47.7005C42.7523 48.9882 40.367 49.908 37.0643 50.8278C30.0918 52.6673 25.1377 53.0352 19.4496 54.5069C18.3487 54.6908 17.2477 55.0588 16.1468 55.6106C17.2477 56.1625 18.3487 56.7143 19.4496 57.0823C21.8349 56.3464 22.9358 56.1625 26.2386 55.4267C27.523 55.2427 31.3762 54.5069 34.312 53.955C39.4496 52.8513 46.9725 50.2759 44.9542 47.1487ZM41.6514 40.5263C40.5505 39.9744 39.2661 39.6065 37.7982 39.0547C37.0643 39.6065 36.3303 39.9744 35.2294 40.5263C37.0643 40.8942 38.3487 41.4461 40 41.814C40.1835 41.9979 41.4679 40.7103 41.6514 40.5263ZM16.5138 47.5166C23.1193 45.4931 30.2753 44.9412 37.4312 42.9177C34.6789 42.1819 33.2111 41.814 30.2753 42.1819C26.0551 42.7338 21.2844 43.6535 17.2477 44.9412C15.5964 45.4931 7.33949 47.8845 9.72481 51.1957C9.72481 51.1957 11.0092 49.1722 16.5138 47.5166ZM11.9266 59.2897C11.9266 59.8416 12.2936 60.5774 13.0276 61.1293C13.2111 60.7614 13.2111 60.5774 13.578 60.2095C13.0276 60.0255 12.4771 59.6576 11.9266 59.2897ZM15.0459 58.9218C15.5964 58.5539 16.1468 58.3699 16.8808 58.002C15.9633 57.6341 15.0459 57.0823 13.945 56.7143C13.578 57.0823 13.0276 57.2662 12.8441 57.6341C13.578 58.186 14.312 58.5539 15.0459 58.9218ZM40.734 44.2054C39.4496 44.9412 37.4312 45.4931 34.6789 46.2289C32.4771 46.7808 26.789 47.7005 20.9175 48.9882C19.0826 49.3561 13.945 50.6438 11.3762 52.8513C12.1101 53.4032 12.4771 53.5871 13.2111 53.955C14.312 53.2192 15.5964 52.6673 17.7982 52.1155C21.4679 51.0117 24.2202 50.6438 27.523 50.092C30.8257 49.5401 36.8808 48.2524 40.367 46.9647C41.4679 46.5968 42.5689 46.045 43.3028 45.4931C43.1193 45.1252 40.9175 44.0214 40.734 44.2054ZM42.7523 42.9177C43.4863 43.2856 44.0367 43.4696 44.5872 44.0214C44.9542 43.1017 44.7707 42.7338 43.8533 41.814C43.4863 42.1819 43.1193 42.5498 42.7523 42.9177ZM11.5597 55.4267C11.0092 55.0588 10.6422 54.8748 10.0918 54.5069C9.9083 55.0588 10.2753 55.7946 10.8257 56.1625C11.0092 55.9785 11.3762 55.7946 11.5597 55.4267ZM40 36.2953C39.8166 36.8472 39.4496 37.3991 39.0826 37.767C40 38.1349 41.101 38.5028 42.0184 38.8707C42.0184 37.767 40.9175 36.8472 40 36.2953ZM8.6239 42.1819C15.5964 37.3991 23.4863 34.6397 36.5138 37.0312C37.2478 36.6632 37.6147 36.1114 37.7982 35.3756C34.4955 34.0879 31.0092 33.72 26.4221 33.72C22.2019 33.9039 14.6789 35.3756 10.8257 37.9509L11.9266 36.2953C14.8624 34.6397 22.0184 32.4323 27.523 32.2483C31.3762 32.2483 33.3945 32.4323 37.9817 33.72C37.6147 32.9841 36.6973 32.4323 35.2294 31.8804C30.6422 29.8569 22.3854 29.489 15.7799 32.6162C16.5138 32.0644 17.4312 31.5125 18.5322 30.9606C20.734 30.0409 24.4037 28.9371 28.9909 28.9371C32.6606 28.9371 36.8808 30.2248 39.6331 32.9841C40 33.536 40.367 34.0879 40.367 34.6397C42.3854 35.7435 43.6698 36.8472 44.4037 37.9509C44.5872 38.5028 44.7707 39.2386 44.5872 39.9744C45.5046 40.5263 45.8716 40.8942 46.2386 41.63C46.6056 42.1819 46.789 42.7338 46.789 43.2856C46.789 44.0214 46.9725 44.7573 46.2386 45.677C46.9725 46.045 47.523 47.1487 47.523 47.5166C47.89 49.1722 46.789 50.8278 45.5046 51.9315C44.0367 53.4032 40.5505 55.0588 37.7982 55.7946C32.2936 57.2662 27.523 57.8181 23.6698 58.5539C25.3211 58.9218 27.7065 59.4737 31.5597 59.4737C39.8166 59.4737 46.9725 55.4267 46.9725 55.4267C46.9725 55.4267 46.789 55.9785 46.6055 56.3464C41.4679 59.6576 33.0276 60.9453 29.5413 60.7614C25.8716 60.5774 22.9358 60.0255 20 59.1058C19.0826 59.2897 18.1652 59.6576 17.2477 60.0255C21.8349 62.233 25.1377 62.6009 28.9909 62.9688C32.8441 63.3367 39.4496 62.233 44.9542 60.2095C44.7707 60.3934 44.5872 60.9453 44.4037 61.1293C41.6514 62.6009 35.5964 64.2565 32.6606 64.2565C29.7248 64.4405 26.0551 64.2565 22.9358 63.7046C20.1835 63.1528 17.9817 62.233 15.7799 61.1293C15.4129 61.4972 15.2294 61.8651 15.0459 62.417C24.0367 67.3837 32.4771 67.3837 42.2019 64.2565L41.2844 65.1763C30.6422 69.5912 22.3854 67.9356 15.9633 64.6244C15.7799 64.4405 15.4129 64.4405 15.2294 64.2565C15.7799 65.3602 20.734 69.0393 26.2386 69.5912C30.0918 69.9591 34.6789 69.2233 37.4312 68.1196L35.7799 69.0393C34.4955 69.7752 31.0092 71.2468 26.0551 70.8789C19.4496 70.511 15.7799 67.3837 14.1285 65.9121C13.3945 65.1763 13.0276 64.2565 12.8441 63.3367C11.3762 62.6009 10.4588 61.6811 9.72481 60.3934C9.35784 59.6576 9.35784 58.9218 9.54133 58.186C9.54133 58.002 9.54133 57.8181 9.72481 57.6341C8.99087 57.0823 8.25692 56.5304 8.07344 55.9785C7.33949 54.8748 7.70646 53.7711 8.25692 52.8513C7.88995 52.4834 7.52298 51.9315 7.33949 51.3797C7.15601 50.8278 7.15601 50.2759 7.15601 49.7241C7.33949 48.6203 7.88995 47.7006 8.44041 46.9647C9.9083 45.3091 12.1101 44.0214 15.9633 42.5498C19.8166 41.2621 21.2844 41.0782 24.0367 40.3423C27.3395 39.6065 31.3762 39.2386 34.6789 38.1349C25.5046 36.4793 15.7799 37.9509 7.88995 43.6535L8.6239 42.1819Z" fill="#224E75"/>
<path d="M89.5414 45.1252L90.6424 52.6673H88.624L89.5414 45.1252ZM81.1011 62.4169H86.7891L87.5231 58.186H91.3763L92.1102 62.4169H97.7983L93.0277 37.583H86.0552L81.1011 62.4169Z" fill="#224E75"/>
<path d="M103.119 47.1488C104.037 47.1488 105.688 46.5969 105.688 44.7574C105.688 42.5499 103.853 42.3659 103.303 42.3659C102.569 42.3659 101.468 42.5499 100.184 43.1018V37.7671C102.018 37.2152 103.486 37.0312 105.138 37.0312C109.725 37.0312 111.743 40.3424 111.743 43.6536C111.743 46.7809 109.908 48.8044 108.257 49.5402V49.7241C109.908 50.276 112.11 51.9316 112.11 55.6107C112.11 60.3935 108.991 62.9689 104.954 62.9689C102.752 62.9689 101.284 62.601 99.6331 61.6812L99.8165 56.5305C101.468 57.2663 102.385 57.2663 103.486 57.2663C105.321 57.2663 106.055 55.9786 106.055 54.8749C106.055 53.4033 105.138 52.4835 103.303 52.4835H101.101V47.1488H103.119Z" fill="#224E75"/>
<path d="M114.495 37.583H129.725V62.4169H124.22V43.4696H120.183V62.4169H114.495V37.583Z" fill="#224E75"/>
<path d="M138.532 43.1017H139.816C141.101 43.1017 141.835 43.8375 141.835 45.861C141.835 48.6203 140.55 48.8043 139.816 48.8043H138.532V43.1017ZM133.027 62.4169H138.532V54.139H140.367C145.872 54.139 147.523 48.9882 147.523 45.677C147.523 42.3658 145.505 37.399 140.367 37.399H132.844V62.4169H133.027Z" fill="#224E75"/>
<path d="M157.982 56.7144C155.963 56.7144 155.046 54.323 155.046 49.9081C155.046 45.4932 156.147 43.1018 157.982 43.1018C160 43.1018 160.917 45.4932 160.917 49.9081C160.917 54.323 160 56.7144 157.982 56.7144ZM157.982 62.785C164.587 62.785 166.789 56.3465 166.789 49.9081C166.789 43.4697 164.587 37.0312 157.982 37.0312C151.376 37.0312 149.174 43.4697 149.174 49.9081C149.174 56.3465 151.376 62.785 157.982 62.785Z" fill="#224E75"/>
<path d="M196.514 57.4502V51.7475H197.248C197.982 51.7475 199.633 51.7475 199.633 54.3229C199.633 56.8983 197.798 57.4502 197.248 57.4502H196.514ZM191.009 62.4169H197.615C199.083 62.4169 205.138 61.8651 205.138 54.3229C205.138 47.8845 200.551 46.7808 197.431 46.7808H196.514V43.4696H203.853V37.583H191.009V62.4169Z" fill="#224E75"/>
<path d="M225.321 37.583H230.826V46.5968H234.679V37.583H240.183V62.4169H234.679V52.4834H230.826V62.4169H225.321V37.583Z" fill="#224E75"/>
<path d="M243.853 37.583H249.174V46.5968H250.459L253.578 37.583H259.45L255.229 49.3561L260 62.4169H253.578L250.459 52.4834H249.174V62.4169H243.853V37.583Z" fill="#224E75"/>
<path d="M70.4587 37.583H81.8349V43.8375H76.1468V62.4169H70.4587V37.583Z" fill="#224E75"/>
<path d="M169.541 37.583H174.128L178.349 43.4696L182.569 37.583H187.339V62.4169H181.835V47.3326L178.349 51.5636L175.046 47.3326V62.4169H169.541V37.583Z" fill="#224E75"/>
<path d="M214.679 45.1253L215.78 52.6674H213.578L214.679 45.1253ZM206.239 62.601H211.927L212.661 58.3701H216.514L217.248 62.601H222.936L218.165 37.7671H211.009L206.239 62.601Z" fill="#224E75"/>
</svg>
