<svg width="163" height="100" viewBox="0 0 163 100" fill="none" xmlns="http://www.w3.org/2000/svg">
<g clip-path="url(#clip0_273_832)">
<path d="M50.3359 50.9747H60.7056V54.3224H55.773V77.979H50.3359V50.9747Z" fill="#0079C2"/>
<path d="M66.8152 67.8803L67.7681 54.3782H68.1044L69.0573 67.8803H66.8152ZM60.8176 77.979H66.1426L66.6471 70.7816H69.2255L69.7299 77.979H75.0549L72.2523 50.9747H63.7323L60.8176 77.979Z" fill="#0079C2"/>
<path d="M82.7342 68.5499V73.6271C82.7342 74.2966 83.2947 74.5198 83.575 74.5198C84.0794 74.5198 84.4158 74.0734 84.4158 73.6271V67.3224C84.4158 66.4855 84.2476 65.537 82.2297 65.537H80.0437V62.5799H82.3418C83.8552 62.5799 84.4158 62.2451 84.4158 60.5713V55.2151C84.4158 54.7687 84.0794 54.3224 83.575 54.3224C83.2387 54.3224 82.7342 54.4898 82.7342 55.2151V59.6228H77.2971V55.773C77.2971 53.876 77.5213 50.9747 81.3329 50.9747H85.8171C89.6286 50.9747 89.8528 53.9318 89.8528 55.773V60.0692C89.8528 63.0262 87.7789 63.8073 86.1534 63.7516V64.0305C89.7968 63.9189 89.8528 66.7086 89.8528 67.6571V73.1249C89.8528 75.0219 89.6286 77.9232 85.8171 77.9232H81.3329C77.5213 77.9232 77.2971 75.0219 77.2971 73.1249V68.494H82.7342" fill="#0079C2"/>
<path d="M93.4401 50.9747H105.996V77.979H100.559V54.3782H98.8211V78.0348H93.384V50.9747" fill="#0079C2"/>
<path d="M115.02 65.8717V54.3782H115.749C116.31 54.3782 116.758 54.8803 116.758 55.7172V64.4769C116.758 65.3138 116.31 65.8159 115.749 65.8159H115.02V65.8717ZM109.583 77.979H115.02V68.773H118.159C121.915 68.773 122.195 65.8717 122.195 63.9747V55.8288C122.195 53.9318 121.971 51.0305 118.159 51.0305H109.639V77.979" fill="#0079C2"/>
<path d="M132.845 73.6271C132.845 74.0734 132.509 74.5198 132.004 74.5198C131.668 74.5198 131.163 74.2966 131.163 73.6271V55.2151C131.163 54.4897 131.724 54.3224 132.004 54.3224C132.509 54.3224 132.845 54.7687 132.845 55.2151V73.6271ZM125.726 73.1807C125.726 75.0777 125.951 77.979 129.762 77.979H134.302C138.058 77.979 138.338 75.0777 138.338 73.1807V55.8288C138.338 53.9318 138.114 51.0305 134.302 51.0305H129.762C126.007 51.0305 125.726 53.9876 125.726 55.8288V73.1807Z" fill="#0079C2"/>
<path d="M155.938 50.9747H163.001V77.979H157.564V61.0734H157.34L154.537 77.979H150.221L147.418 61.0734H147.194V77.979H141.757V50.9747H148.876L152.407 69.9447L155.938 50.9747Z" fill="#0079C2"/>
<path d="M43.3294 14.0949C41.6478 6.84165 37.5 0.983288 36.9395 0.03479C36.0426 1.37385 32.7355 6.56269 30.9979 12.3653C29.1482 18.7816 28.8679 24.5283 29.5406 30.1077C30.1571 35.7429 32.5674 41.4897 32.5674 41.4897C33.8566 44.5026 35.7063 47.7386 36.9955 49.3567C38.7892 47.0133 42.9931 40.0391 44.2823 30.8889C44.9549 25.7558 44.9549 21.2923 43.3294 14.0949ZM36.9395 47.5155C36.0987 46.009 34.8655 43.1078 34.7534 38.5884C34.6974 34.2365 36.491 30.4983 36.9955 29.7172C37.4439 30.4983 38.9573 33.7344 39.1255 38.1979C39.1815 42.494 37.7802 45.9532 36.9395 47.5155ZM42.8249 26.3695C42.7689 29.1592 42.4326 32.0605 41.9842 33.7902C42.1523 30.7773 41.7599 26.5369 41.0873 23.2451C40.4147 19.9532 38.4529 14.4296 36.8834 11.8631C35.426 14.318 33.6324 19.0605 32.7355 23.2451C31.7826 27.3738 31.7826 32.3953 31.7826 33.9017C31.5584 32.6185 30.8858 28.0992 31.11 23.5798C31.2782 19.8416 32.119 15.9919 32.6234 14.2065C34.4732 8.2923 36.5471 4.49831 36.9395 3.94037C37.3318 4.5541 39.9663 9.18499 41.3115 14.0949C42.6007 18.9489 42.881 23.6356 42.8249 26.3695Z" fill="#0079C2"/>
<path d="M39.742 50.9747H27.1303V59.3996C27.1303 59.3996 27.1303 59.3996 27.1863 59.3996C30.1571 56.4425 34.9776 56.4425 37.9484 59.3996C40.9191 62.3567 40.9191 67.155 37.9484 70.1121C37.9484 70.1121 37.9484 70.1121 37.8923 70.1679C37.8923 70.1679 37.8363 70.1679 37.8363 70.2237C34.8655 73.125 30.9979 74.6314 27.1303 74.6314C23.2627 74.6314 19.339 73.1808 16.3682 70.2237C11.1554 65.0348 10.4828 56.9447 14.5185 51.0305C15.079 50.2494 15.6956 49.4683 16.3682 48.7988C19.339 45.8417 23.2066 44.391 27.1303 44.391V24.1378C12.1643 24.1378 0.000976562 36.1893 0.000976562 51.0863C0.000976562 65.9833 12.1083 78.0906 27.1303 78.0906C34.9215 78.0906 41.9841 74.7988 46.9167 69.5541V51.1421H39.742" fill="#0079C2"/>
</g>
<defs>
<clipPath id="clip0_273_832">
<rect width="163" height="78" fill="white"/>
</clipPath>
</defs>
</svg>
