<svg width="262" height="100" viewBox="0 0 262 100" fill="none" xmlns="http://www.w3.org/2000/svg">
<g clip-path="url(#clip0_273_868)">
<path d="M2.82035 76.9255V82.9032H0V66.814H6.21003C8.02318 66.814 9.46192 67.2821 10.5253 68.2183C11.5951 69.1535 12.13 70.3907 12.13 71.9308C12.13 73.5076 11.606 74.7338 10.558 75.6103C9.51722 76.4868 8.05673 76.9255 6.17649 76.9255H2.82035ZM2.82035 74.6824H6.21003C7.21361 74.6824 7.97876 74.4502 8.50639 73.9858C9.03401 73.514 9.29783 72.8367 9.29783 71.9528C9.29783 71.0837 9.03039 70.3907 8.49551 69.8749C7.96063 69.3518 7.22449 69.0838 6.288 69.0691H2.82035V74.6824ZM24.0931 75.7214H17.4262V80.6711H25.2191V82.9032H14.6049V66.814H25.1411V69.0691H17.4262V73.5113H24.0931V75.7204V75.7214ZM37.8948 69.0691H30.4029V82.9032H27.5934V66.814H37.8948V69.0691ZM50.1925 66.8149H53.0128V82.9041H50.1925V71.4444L43.0686 82.9032H40.2474V66.814H43.0686V78.2848L50.1925 66.8149ZM68.7782 77.6653C68.615 79.3816 67.9749 80.7225 66.8599 81.688C65.7448 82.6453 64.2625 83.1244 62.4122 83.1244C61.1185 83.1244 59.9771 82.8215 58.989 82.2185C58.0081 81.6073 57.2502 80.7408 56.7144 79.6211C56.1795 78.5014 55.9003 77.2018 55.8785 75.7204V74.218C55.8785 72.7008 56.1505 71.3636 56.6926 70.2072C57.2348 69.0507 58.0117 68.1586 59.0225 67.5327C60.0406 66.9067 61.2146 66.5938 62.5455 66.5938C64.3369 66.5938 65.7783 67.0756 66.8716 68.0411C67.9641 69.0057 68.5996 70.3687 68.7782 72.1291H65.9678C65.8345 70.9726 65.4927 70.1402 64.9434 69.6326C64.3994 69.1168 63.6016 68.8589 62.5455 68.8589C61.3189 68.8589 60.3751 69.304 59.7133 70.1961C59.0597 71.08 58.7252 72.3805 58.7107 74.0968V75.5222C58.7107 77.2605 59.0225 78.5868 59.6472 79.5C60.279 80.4132 61.2001 80.8703 62.4122 80.8703C63.5191 80.8703 64.3523 80.6234 64.9089 80.1296C65.4665 79.6367 65.82 78.8144 65.9678 77.6653H68.7782ZM82.7031 69.0691H77.6408V82.9032H74.8432V69.0691H69.8262V66.8149H82.7031V69.0691ZM87.6639 76.9255V82.9032H84.8436V66.814H91.0536C92.8668 66.814 94.3055 67.2821 95.368 68.2183C96.4387 69.1535 96.9735 70.3907 96.9735 71.9308C96.9735 73.5076 96.4495 74.7338 95.4015 75.6103C94.3608 76.4868 92.9003 76.9255 91.0201 76.9255H87.6639ZM87.6639 74.6824H91.0536C92.0572 74.6824 92.8223 74.4502 93.35 73.9858C93.8776 73.514 94.1414 72.8367 94.1414 71.9528C94.1414 71.0837 93.874 70.3907 93.3391 69.8749C92.8033 69.3518 92.0681 69.0838 91.1316 69.0691H87.6639V74.6824ZM106.551 79.1576H100.263L98.9472 82.9032H96.0144L102.146 66.814H104.678L110.821 82.9032H107.877L106.551 79.1576ZM101.054 76.9035H105.759L103.407 70.2292L101.054 76.9035ZM123.062 69.0691H118.001V82.9032H115.202V69.0691H110.185V66.8149H123.062V69.0691ZM137.846 75.279C137.846 76.8558 137.571 78.2407 137.021 79.4339C136.47 80.6197 135.682 81.5329 134.657 82.1745C133.638 82.8078 132.464 83.1244 131.134 83.1244C129.818 83.1244 128.644 82.8078 127.61 82.1745C126.585 81.5329 125.79 80.6234 125.225 79.4449C124.668 78.2664 124.385 76.9072 124.377 75.3671V74.4612C124.377 72.8917 124.656 71.5068 125.213 70.3063C125.778 69.1058 126.57 68.188 127.589 67.5547C128.614 66.9141 129.789 66.5938 131.112 66.5938C132.434 66.5938 133.605 66.9104 134.624 67.5437C135.649 68.1696 136.44 69.0764 136.998 70.2622C137.555 71.4407 137.838 72.8147 137.846 74.3832V75.279ZM135.024 74.4392C135.024 72.6559 134.682 71.2902 133.999 70.3393C133.323 69.3894 132.36 68.914 131.112 68.914C129.892 68.914 128.938 69.3894 128.246 70.3393C127.562 71.2828 127.213 72.6192 127.198 74.3501V75.279C127.198 77.0467 127.544 78.4133 128.235 79.3788C128.934 80.3434 129.9 80.8262 131.134 80.8262C132.383 80.8262 133.342 80.3544 134.01 79.4119C134.686 78.4684 135.024 77.0907 135.024 75.279V74.4392ZM143.475 76.9255V82.9032H140.655V66.814H146.865C148.678 66.814 150.117 67.2821 151.179 68.2183C152.25 69.1535 152.785 70.3907 152.785 71.9308C152.785 73.5076 152.261 74.7338 151.213 75.6103C150.172 76.4868 148.712 76.9255 146.831 76.9255H143.475ZM143.475 74.6824H146.865C147.869 74.6824 148.634 74.4502 149.161 73.9858C149.689 73.514 149.953 72.8367 149.953 71.9528C149.953 71.0837 149.685 70.3907 149.151 69.8749C148.616 69.3518 147.88 69.0838 146.943 69.0691H143.475V74.6824ZM170.891 66.8149H173.711V82.9041H170.891V71.4444L163.766 82.9032H160.946V66.814H163.766V78.2848L170.891 66.8149ZM189.978 82.9032H187.169V75.7535H179.911V82.9032H177.089V66.814H179.911V73.5113H187.169V66.814H189.978V82.9032ZM204.716 69.0691H199.655V82.9032H196.856V69.0691H191.839V66.8149H204.716V69.0691ZM209.678 76.9255V82.9032H206.858V66.814H213.068C214.881 66.814 216.319 67.2821 217.382 68.2183C218.452 69.1535 218.988 70.3907 218.988 71.9308C218.988 73.5076 218.464 74.7338 217.416 75.6103C216.375 76.4868 214.914 76.9255 213.034 76.9255H209.678ZM209.678 74.6824H213.068C214.07 74.6824 214.836 74.4502 215.364 73.9858C215.892 73.514 216.155 72.8367 216.155 71.9528C216.155 71.0837 215.888 70.3907 215.353 69.8749C214.817 69.3518 214.082 69.0838 213.146 69.0691H209.678V74.6824ZM228.565 79.1576H222.277L220.96 82.9032H218.028L224.16 66.814H226.692L232.835 82.9032H229.891L228.565 79.1576ZM223.068 76.9035H227.772L225.421 70.2292L223.068 76.9035ZM239.491 76.0086H237.572V82.9032H234.763V66.814H237.572V73.5774H239.123L243.894 66.8149H247.351L241.776 74.5163L247.841 82.9032H244.451L239.491 76.0077V76.0086ZM262 75.279C262 76.8558 261.725 78.2407 261.175 79.4339C260.625 80.6197 259.837 81.5329 258.812 82.1745C257.793 82.8078 256.619 83.1244 255.289 83.1244C253.972 83.1244 252.798 82.8078 251.765 82.1745C250.739 81.5329 249.944 80.6234 249.38 79.4449C248.822 78.2664 248.539 76.9072 248.532 75.3671V74.4612C248.532 72.8917 248.811 71.5068 249.368 70.3063C249.934 69.1058 250.725 68.188 251.743 67.5547C252.768 66.9141 253.943 66.5938 255.266 66.5938C256.589 66.5938 257.76 66.9104 258.778 67.5437C259.803 68.1696 260.595 69.0764 261.152 70.2622C261.71 71.4407 261.993 72.8147 262 74.3832V75.279ZM259.18 74.4392C259.18 72.6559 258.837 71.2902 258.153 70.3393C257.477 69.3894 256.514 68.914 255.266 68.914C254.047 68.914 253.092 69.3894 252.4 70.3393C251.717 71.2828 251.368 72.6192 251.352 74.3501V75.279C251.352 77.0467 251.699 78.4133 252.389 79.3788C253.088 80.3434 254.055 80.8262 255.289 80.8262C256.537 80.8262 257.496 80.3544 258.164 79.4119C258.841 78.4684 259.18 77.0907 259.18 75.279V74.4392Z" fill="#C80635"/>
<path fill-rule="evenodd" clip-rule="evenodd" d="M131.514 49.696C125.067 29.3326 107.062 17.4534 106.391 17.0174L106.379 17L106.382 17.011L106.372 17.0046L106.385 17.0229C106.571 17.7875 111.612 37.8957 127.617 50.7203C107.385 44.6949 87.6104 52.5128 86.8606 52.8138H86.8389L86.8497 52.8184L86.8389 52.823H86.8606C87.6584 53.1442 109.987 61.9717 131.493 53.5875C153.01 61.9965 175.364 53.1589 176.163 52.8377H176.184L176.174 52.8331L176.184 52.8285H176.163C175.413 52.5265 155.639 44.7086 135.407 50.735C151.411 37.9104 156.451 17.8012 156.639 17.0367L156.651 17.0184L156.641 17.0257L156.644 17.0147L156.631 17.0312C155.962 17.4681 137.964 29.3418 131.514 49.696ZM117.576 37.5222C124.233 46.9444 130.528 51.1792 130.528 51.1792C130.528 51.1792 128.67 43.8771 121.945 34.3585C119.33 30.657 116.653 28.9618 115.448 29.8346C114.241 30.7084 114.894 33.7243 117.576 37.5222ZM110.452 55.6039C122.199 55.6039 129.451 52.8138 129.451 52.8138C129.451 52.8138 122.319 50.0218 110.452 50.0218C105.837 50.0218 102.841 51.2719 102.841 52.8129C102.841 54.3548 105.717 55.6039 110.452 55.6039ZM145.446 37.536C138.789 46.9591 132.495 51.1939 132.495 51.1939C132.495 51.1939 134.352 43.8918 141.077 34.3732C143.693 30.6708 146.369 28.9765 147.576 29.8484C148.781 30.7231 148.13 33.7381 145.446 37.536ZM152.571 55.6186C140.824 55.6186 133.572 52.8285 133.572 52.8285C133.572 52.8285 140.704 50.0365 152.571 50.0365C157.186 50.0365 160.183 51.2866 160.183 52.8276C160.183 54.3695 157.306 55.6186 152.571 55.6186Z" fill="#C80635"/>
</g>
<defs>
<clipPath id="clip0_273_868">
<rect width="262" height="67" fill="white" transform="translate(0 17)"/>
</clipPath>
</defs>
</svg>
