<svg width="216" height="100" viewBox="0 0 216 100" fill="none" xmlns="http://www.w3.org/2000/svg">
<path d="M19.2471 41.6406H11.8943L9.35683 36.1398C8.7513 34.8432 8.28034 34.0352 7.94393 33.7159C7.60753 33.3869 7.14137 33.2224 6.54545 33.2224V41.6406H0.0288346V20.3629H6.54545V28.5343C7.11253 28.5053 7.55467 28.3021 7.87185 27.9247C8.18903 27.5474 8.68402 26.4636 9.35683 24.6736C9.84702 23.3479 10.342 22.3997 10.8418 21.8288C11.3416 21.2482 12.1538 20.8321 13.2783 20.5806C14.4029 20.329 16.1666 20.2032 18.5695 20.2032V24.7026H18.2379C17.1229 24.7026 16.2964 24.9155 15.7581 25.3412C15.2199 25.767 14.7777 26.4588 14.4317 27.4167C14.0857 28.365 13.7109 29.0762 13.3072 29.5503C12.9131 30.0148 12.37 30.3873 11.678 30.6679C12.6199 30.9776 13.4417 31.5146 14.1434 32.279C14.845 33.0337 15.5899 34.2142 16.3781 35.8205L19.2471 41.6406Z" fill="#6B6B6B"/>
<path d="M20.7753 31.0163C20.7753 27.5425 21.7365 24.8381 23.6588 22.9028C25.5811 20.9676 28.2579 20 31.6892 20C35.2071 20 37.9175 20.9531 39.8206 22.8593C41.7237 24.7558 42.6752 27.4167 42.6752 30.8421C42.6752 33.3289 42.2571 35.3705 41.4209 36.9671C40.5943 38.554 39.3929 39.7925 37.8166 40.6827C36.2499 41.5632 34.294 42.0035 31.9487 42.0035C29.5651 42.0035 27.5899 41.6213 26.0232 40.8569C24.4662 40.0925 23.2022 38.8829 22.2315 37.2283C21.2607 35.5737 20.7753 33.503 20.7753 31.0163ZM27.3064 31.0453C27.3064 33.1934 27.7004 34.7367 28.4886 35.6753C29.2863 36.6139 30.3676 37.0832 31.7325 37.0832C33.1358 37.0832 34.2219 36.6236 34.9908 35.7043C35.7597 34.7851 36.1442 33.1353 36.1442 30.755C36.1442 28.752 35.7405 27.291 34.9331 26.3717C34.1354 25.4428 33.0493 24.9784 31.6748 24.9784C30.358 24.9784 29.3008 25.4477 28.503 26.3862C27.7052 27.3248 27.3064 28.8778 27.3064 31.0453Z" fill="#6B6B6B"/>
<path d="M65.6131 41.6406H59.0821V25.588H53.9784V32.1339C53.9784 34.8238 53.8342 36.8026 53.5459 38.0702C53.2671 39.328 52.6039 40.2521 51.5563 40.8424C50.5182 41.4326 48.8362 41.7277 46.5102 41.7277C45.799 41.7277 44.982 41.6503 44.0593 41.4955V37.1848H45.0396C45.9239 37.1848 46.5487 36.9913 46.9139 36.6042C47.2791 36.2075 47.4618 35.4866 47.4618 34.4416V20.3629H65.6131V41.6406Z" fill="#6B6B6B"/>
<path d="M76.4982 28.5634H79.9872C83.1878 28.5634 85.5619 29.1343 87.1093 30.276C88.6568 31.4081 89.4305 33.174 89.4305 35.5737C89.4305 37.538 88.7193 39.0426 87.2968 40.0876C85.8839 41.123 83.851 41.6406 81.1982 41.6406H69.9816V20.3629H76.4982V28.5634ZM76.4982 37.0687H79.843C81.8903 37.0687 82.9139 36.3236 82.9139 34.8335C82.9139 33.5272 81.8903 32.8741 79.843 32.8741H76.4982V37.0687ZM91.0308 20.3629H97.5763V41.6406H91.0308V20.3629Z" fill="#6B6B6B"/>
<path d="M101.829 20.3629H110.422L113.738 33.3095L117.04 20.3629H125.604V41.6406H120.269V25.4138L116.131 41.6406H111.302L107.178 25.4138V41.6406H101.829V20.3629Z" fill="#6B6B6B"/>
<path d="M143.856 32.9466L149.579 34.6883C149.195 36.3043 148.59 37.6541 147.763 38.7378C146.936 39.8215 145.908 40.6392 144.678 41.1907C143.457 41.7422 141.9 42.018 140.006 42.018C137.709 42.018 135.83 41.6842 134.369 41.0165C132.918 40.3392 131.664 39.1539 130.606 37.4606C129.549 35.7672 129.02 33.5998 129.02 30.9582C129.02 27.4361 129.948 24.7316 131.803 22.8448C133.668 20.9483 136.301 20 139.704 20C142.366 20 144.457 20.5419 145.975 21.6256C147.503 22.7093 148.638 24.3736 149.378 26.6185L143.611 27.9102C143.409 27.2619 143.197 26.7878 142.976 26.4878C142.611 25.9847 142.164 25.5976 141.636 25.3267C141.107 25.0558 140.516 24.9203 139.862 24.9203C138.382 24.9203 137.248 25.5202 136.46 26.7201C135.864 27.6103 135.566 29.0085 135.566 30.9147C135.566 33.2756 135.922 34.8964 136.633 35.7769C137.344 36.6478 138.344 37.0832 139.632 37.0832C140.881 37.0832 141.823 36.73 142.457 36.0237C143.101 35.3173 143.567 34.2916 143.856 32.9466Z" fill="#6B6B6B"/>
<path d="M171.984 41.6406H164.631L162.094 36.1398C161.488 34.8432 161.017 34.0352 160.681 33.7159C160.344 33.3869 159.878 33.2224 159.282 33.2224V41.6406H152.766V20.3629H159.282V28.5343C159.849 28.5053 160.292 28.3021 160.609 27.9247C160.926 27.5474 161.421 26.4636 162.094 24.6736C162.584 23.3479 163.079 22.3997 163.579 21.8288C164.078 21.2482 164.891 20.8321 166.015 20.5806C167.14 20.329 168.903 20.2032 171.306 20.2032V24.7026H170.975C169.86 24.7026 169.033 24.9155 168.495 25.3412C167.957 25.767 167.515 26.4588 167.169 27.4167C166.823 28.365 166.448 29.0762 166.044 29.5503C165.65 30.0148 165.107 30.3873 164.415 30.6679C165.357 30.9776 166.179 31.5146 166.88 32.279C167.582 33.0337 168.327 34.2142 169.115 35.8205L171.984 41.6406Z" fill="#6B6B6B"/>
<path d="M187.338 38.1282H179.899L178.875 41.6406H172.2L180.144 20.3629H187.266L195.21 41.6406H188.376L187.338 38.1282ZM185.969 33.5272L183.633 25.8782L181.312 33.5272H185.969Z" fill="#6B6B6B"/>
<path d="M216 41.6406V20.3629H205.115C203.097 20.3629 201.554 20.537 200.487 20.8854C199.42 21.2337 198.56 21.882 197.906 22.8303C197.253 23.7688 196.926 24.9155 196.926 26.2701C196.926 27.4506 197.176 28.4714 197.676 29.3326C198.175 30.1841 198.863 30.876 199.737 31.4081C200.295 31.7468 201.059 32.0274 202.03 32.25C201.251 32.5112 200.684 32.7725 200.328 33.0337C200.088 33.2079 199.737 33.5804 199.276 34.1513C198.824 34.7222 198.521 35.1625 198.368 35.4721L195.21 41.6406H202.592L206.081 35.1383C206.523 34.2965 206.917 33.7498 207.263 33.4982C207.734 33.1692 208.268 33.0047 208.863 33.0047H209.44V41.6406H216ZM209.44 28.9843H206.686C206.388 28.9843 205.812 28.8875 204.956 28.694C204.524 28.6069 204.168 28.3844 203.889 28.0263C203.62 27.6683 203.486 27.2571 203.486 26.7926C203.486 26.1056 203.702 25.5783 204.135 25.2106C204.567 24.8429 205.379 24.6591 206.571 24.6591H209.44V28.9843Z" fill="#6B6B6B"/>
<path d="M0 58.3448H10.8562C13.2207 58.3448 14.9892 58.9109 16.1618 60.043C17.344 61.1751 17.9351 62.7862 17.9351 64.8762C17.9351 67.0243 17.2911 68.7031 16.0032 69.9126C14.7249 71.1222 12.7689 71.7269 10.1354 71.7269H6.55987V79.6226H0V58.3448ZM6.55987 67.4162H8.16019C9.4193 67.4162 10.3036 67.1985 10.813 66.7631C11.3224 66.318 11.5771 65.7519 11.5771 65.0649C11.5771 64.3973 11.356 63.8312 10.9139 63.3668C10.4718 62.9023 9.64037 62.6701 8.4197 62.6701H6.55987V67.4162Z" fill="#6B6B6B"/>
<path d="M20.5447 68.9983C20.5447 65.5245 21.5058 62.82 23.4281 60.8848C25.3504 58.9496 28.0272 57.982 31.4586 57.982C34.9764 57.982 37.6868 58.9351 39.5899 60.8413C41.493 62.7378 42.4445 65.3987 42.4445 68.8241C42.4445 71.3108 42.0264 73.3525 41.1902 74.9491C40.3636 76.5359 39.1622 77.7745 37.5859 78.6647C36.0192 79.5452 34.0633 79.9855 31.7181 79.9855C29.3344 79.9855 27.3592 79.6033 25.7926 78.8389C24.2355 78.0745 22.9716 76.8649 22.0008 75.2103C21.03 73.5557 20.5447 71.485 20.5447 68.9983ZM27.0757 69.0273C27.0757 71.1754 27.4698 72.7187 28.2579 73.6573C29.0557 74.5959 30.137 75.0652 31.5018 75.0652C32.9051 75.0652 33.9912 74.6056 34.7601 73.6863C35.529 72.7671 35.9135 71.1173 35.9135 68.737C35.9135 66.734 35.5098 65.2729 34.7024 64.3537C33.9047 63.4248 32.8186 62.9604 31.4441 62.9604C30.1274 62.9604 29.0701 63.4296 28.2723 64.3682C27.4746 65.3068 27.0757 66.8598 27.0757 69.0273Z" fill="#6B6B6B"/>
<path d="M60.0336 70.9286L65.7573 72.6703C65.3728 74.2863 64.7673 75.6361 63.9407 76.7198C63.1141 77.8035 62.0857 78.6212 60.8554 79.1727C59.6348 79.7242 58.0777 80 56.1842 80C53.8871 80 52.008 79.6662 50.5471 78.9985C49.0957 78.3212 47.8414 77.1359 46.7841 75.4425C45.7269 73.7492 45.1982 71.5818 45.1982 68.9402C45.1982 65.4181 46.1258 62.7136 47.9808 60.8268C49.8454 58.9303 52.479 57.982 55.8815 57.982C58.5439 57.982 60.6344 58.5239 62.153 59.6076C63.6812 60.6913 64.8154 62.3556 65.5555 64.6005L59.7885 65.8922C59.5867 65.2439 59.3753 64.7698 59.1542 64.4698C58.7889 63.9667 58.342 63.5796 57.8134 63.3087C57.2847 63.0378 56.6936 62.9023 56.0401 62.9023C54.5599 62.9023 53.4257 63.5022 52.6376 64.7021C52.0416 65.5923 51.7437 66.9905 51.7437 68.8967C51.7437 71.2576 52.0993 72.8784 52.8106 73.7589C53.5218 74.6298 54.5214 75.0652 55.8094 75.0652C57.0589 75.0652 58.0008 74.712 58.6352 74.0056C59.2791 73.2993 59.7453 72.2736 60.0336 70.9286Z" fill="#6B6B6B"/>
<path d="M83.0148 70.9286L88.7385 72.6703C88.354 74.2863 87.7485 75.6361 86.9219 76.7198C86.0953 77.8035 85.0669 78.6212 83.8366 79.1727C82.6159 79.7242 81.0589 80 79.1654 80C76.8682 80 74.9892 79.6662 73.5282 78.9985C72.0769 78.3212 70.8226 77.1359 69.7653 75.4425C68.7081 73.7492 68.1794 71.5818 68.1794 68.9402C68.1794 65.4181 69.1069 62.7136 70.962 60.8268C72.8266 58.9303 75.4602 57.982 78.8626 57.982C81.525 57.982 83.6155 58.5239 85.1342 59.6076C86.6624 60.6913 87.7966 62.3556 88.5366 64.6005L82.7697 65.8922C82.5679 65.2439 82.3564 64.7698 82.1354 64.4698C81.7701 63.9667 81.3232 63.5796 80.7946 63.3087C80.2659 63.0378 79.6748 62.9023 79.0212 62.9023C77.541 62.9023 76.4069 63.5022 75.6187 64.7021C75.0228 65.5923 74.7249 66.9905 74.7249 68.8967C74.7249 71.2576 75.0805 72.8784 75.7917 73.7589C76.503 74.6298 77.5026 75.0652 78.7906 75.0652C80.04 75.0652 80.982 74.712 81.6163 74.0056C82.2603 73.2993 82.7265 72.2736 83.0148 70.9286Z" fill="#6B6B6B"/>
<path d="M98.4702 66.5454H101.959C105.16 66.5454 107.534 67.1162 109.081 68.258C110.629 69.3901 111.402 71.156 111.402 73.5557C111.402 75.52 110.691 77.0246 109.269 78.0696C107.856 79.105 105.823 79.6226 103.17 79.6226H91.9535V58.3448H98.4702V66.5454ZM98.4702 75.0507H101.815C103.862 75.0507 104.886 74.3056 104.886 72.8155C104.886 71.5092 103.862 70.8561 101.815 70.8561H98.4702V75.0507ZM113.003 58.3448H119.548V79.6226H113.003V58.3448Z" fill="#6B6B6B"/>
<path d="M144.115 79.6226H137.599V63.57H130.419V79.6226H123.902V58.3448H144.115V79.6226Z" fill="#6B6B6B"/>
<path d="M155.015 66.5454H158.504C161.704 66.5454 164.078 67.1162 165.626 68.258C167.173 69.3901 167.947 71.156 167.947 73.5557C167.947 75.52 167.236 77.0246 165.813 78.0696C164.4 79.105 162.368 79.6226 159.715 79.6226H148.498V58.3448H155.015V66.5454ZM155.015 75.0507H158.36C160.407 75.0507 161.431 74.3056 161.431 72.8155C161.431 71.5092 160.407 70.8561 158.36 70.8561H155.015V75.0507Z" fill="#6B6B6B"/>
</svg>
