<svg width="178" height="100" viewBox="0 0 178 100" fill="none" xmlns="http://www.w3.org/2000/svg">
<path d="M87.1729 53.3159H82.0513C80.0078 53.3159 78.3455 55.0452 78.3455 57.1707V76.2546C78.3455 78.4881 79.9044 80.1089 82.0513 80.1089H87.1729C89.2165 80.1089 90.8788 78.3799 90.8788 76.2546V71.2164H86.9142V75.4725C86.9142 75.9391 86.549 76.3189 86.1003 76.3189H83.2525C82.8038 76.3189 82.4393 75.9391 82.4393 75.4725V57.8718C82.4393 57.4047 82.8038 57.0243 83.2525 57.0243H86.1003C86.549 57.0243 86.9142 57.4047 86.9142 57.8718V62.4152H90.8788V57.1712C90.8788 55.0452 89.2165 53.3159 87.1729 53.3159Z" fill="#0E644C"/>
<path d="M104.057 58.6487H92.4358V62.4167H96.2637V80.1186H100.229V62.4167H104.057V58.6487Z" fill="#0E644C"/>
<path d="M40.0163 70.7115H39.6285L39.6264 58.6494H35.6638V80.1179H39.1512L43.4976 68.6134H43.885V80.1179H47.85V58.6494H44.3158L40.0163 70.7115Z" fill="#0E644C"/>
<path d="M22.9053 53.3135L18.0637 80.1137H22.2588L25.5753 57.6746H25.9633L29.4254 80.1137H33.6326L28.8296 53.3135H22.9053Z" fill="#0E644C"/>
<path d="M108.05 58.6487L103.729 80.1186H107.716L108.208 77.3726H113.514L114.001 80.1186H118L113.704 58.6487H108.05ZM108.848 73.8099L110.689 62.4182H111.064L112.883 73.8099H108.848Z" fill="#0E644C"/>
<path d="M63.0213 58.6487L58.7012 80.1186H62.6878L63.1801 77.3726H68.4861L68.9728 80.1186H72.9715L68.676 58.6487H63.0213ZM63.8192 73.8099L65.6608 62.4182H66.0351L67.8546 73.8099H63.8192Z" fill="#0E644C"/>
<path d="M59.7953 58.6487H50.8132V80.1181H54.7783V62.4182H59.7953V58.6487Z" fill="#0E644C"/>
<path d="M142.09 58.6487H137.707C135.664 58.6487 134.002 60.378 134.002 62.5033V76.265C134.002 78.3898 135.664 80.1186 137.707 80.1186H142.09C144.133 80.1186 145.795 78.3898 145.795 76.265V62.5033C145.795 60.378 144.133 58.6487 142.09 58.6487ZM141.831 75.4829C141.831 75.9493 141.466 76.3292 141.018 76.3292H138.781C138.332 76.3292 137.967 75.9493 137.967 75.4829V63.2849C137.967 62.8183 138.332 62.4379 138.781 62.4379H141.018C141.466 62.4379 141.831 62.8246 141.831 63.2995V75.4829Z" fill="#0E644C"/>
<path d="M0 20.8801V80.1199H10.9649V31.6914H167.035V80.1199H178V20.8801H0Z" fill="#0E644C"/>
<path d="M161.237 58.6487H156.961L153.378 67.7608H152.69V58.6487H148.759V80.1191H152.69V71.3241H153.534L157.176 80.1191H161.456L156.864 69.3517L161.237 58.6487Z" fill="#0E644C"/>
<path d="M128.746 69.6269V69.2262H128.742C130.275 68.8944 131.43 67.4749 131.43 65.7784V65.7779V62.4895C131.43 60.3721 129.768 58.6494 127.725 58.6494H120.031V80.1179H127.908C129.952 80.1179 131.615 78.3892 131.615 76.2642V73.2294V73.2283C131.615 71.4429 130.378 69.9539 128.746 69.6269ZM123.995 62.4247H126.651C127.1 62.4247 127.465 62.8046 127.465 63.2717V66.9195C127.465 67.3861 127.099 67.7659 126.651 67.7659H123.995V62.4247ZM127.65 75.4822C127.65 75.9487 127.285 76.3285 126.836 76.3285H123.995V71.3286H126.836C127.285 71.3286 127.65 71.7085 127.65 72.1754V75.4822Z" fill="#0E644C"/>
</svg>
