<svg width="216" height="100" viewBox="0 0 216 100" fill="none" xmlns="http://www.w3.org/2000/svg">
<path d="M115.308 63.3252V36.3252H132.084V42.5892H122.292V63.3252H115.308Z" fill="#E30613"/>
<path d="M153.216 63.3252V52.7412H142.812V63.3252H135.828V36.3252H142.812V46.4052H153.216V36.3252H160.2V63.3252H153.216Z" fill="#E30613"/>
<path d="M200.808 63.3252V42.5892H192.636V36.3252H216V42.5892H207.792V63.3252H200.808Z" fill="#E30613"/>
<path d="M182.34 63.3252V47.9532L171.18 63.3252H165.348V36.3252H172.332V51.5532L183.276 36.3252H189.324V63.3252H182.34Z" fill="#E30613"/>
<path d="M75.1319 63.3252V47.2692L68.1479 55.7652L61.1639 47.3052V63.3252H54.1799V36.3252H61.0919L68.1839 45.6132L75.2759 36.3252H82.1879V63.3252H75.1319Z" fill="#E30613"/>
<path d="M95.4 53.8212H101.916L98.676 45.3612L95.4 53.8212ZM105.552 63.3252L104.076 59.5452H93.204L91.728 63.3252H84.708L95.472 36.3252H101.952L112.716 63.3252H105.552Z" fill="#E30613"/>
<path d="M0 41.7975C0 38.5215 1.296 35.4255 3.564 33.1215C5.832 30.8175 8.892 29.5215 12.132 29.5215H40.104V35.7855H12.132C10.548 35.7855 9.036 36.4335 7.92 37.5495C6.804 38.6655 6.192 40.2135 6.156 41.8335L6.12 52.3455C5.976 53.6775 5.436 54.9375 4.536 55.9455C3.636 56.9175 2.412 57.5655 1.116 57.8175L0 57.9975V41.7975Z" fill="#E30613"/>
<path d="M0 70.1295V63.8655H27.936C29.52 63.8655 31.032 63.2175 32.148 62.1015C33.264 60.9855 33.876 59.4375 33.912 57.8175V47.8455C33.912 46.4055 34.416 45.0015 35.352 43.9215C36.288 42.8415 37.548 42.0855 38.952 41.8695L40.068 41.6895V57.8175C40.068 61.0935 38.772 64.1894 36.504 66.4935C34.236 68.7974 31.176 70.0935 27.936 70.0935H0V70.1295Z" fill="#E30613"/>
<path d="M23.6879 57.9613V49.8613L20.0519 54.2893L16.3799 49.8613V57.9613H11.5559V42.0493H16.1279L20.0159 47.1613L23.9399 42.0493H28.5119V57.9613H23.6879Z" fill="#E30613"/>
</svg>
