<svg width="194" height="100" viewBox="0 0 194 100" fill="none" xmlns="http://www.w3.org/2000/svg">
<path d="M81.0295 60.2498H64.296L85.659 32.2071C86.1245 31.5913 85.9952 30.6933 85.3745 30.2315C85.1417 30.0519 84.8314 29.9493 84.521 29.9493H53.6144C50.8988 29.9493 48.6746 32.1558 48.6746 34.8497C48.6746 37.5437 50.8988 39.7502 53.6144 39.7502H67.503L46.0624 67.8186C45.571 68.4343 45.7003 69.3067 46.321 69.7941C46.5797 69.9994 46.89 70.102 47.2004 70.0764H81.0036C83.7192 69.9481 85.8142 67.639 85.6848 64.9194C85.5555 62.405 83.5382 60.4038 81.0036 60.2755V60.2498H81.0295ZM189.034 29.9493C186.319 29.9493 184.094 32.1558 184.094 34.8497V51.2957L157.404 30.2828C156.809 29.7954 155.903 29.8723 155.412 30.4881C155.205 30.7447 155.102 31.0525 155.102 31.3861V65.1759C155.102 67.8699 157.326 70.0764 160.042 70.0764C162.757 70.0764 164.981 67.8955 164.981 65.1759V48.73L191.672 69.7685C192.293 70.256 193.198 70.1533 193.69 69.5376C193.897 69.281 194 68.9731 194 68.6652V34.8497C193.974 32.1301 191.776 29.9493 189.034 29.9493ZM118.402 61.1735C107.1 61.1735 98.6682 55.2724 98.6682 49.9872C98.6682 44.7019 107.125 38.8009 118.402 38.8009C129.704 38.8009 138.135 44.7019 138.135 49.9872C138.135 55.2724 129.73 61.1735 118.402 61.1735ZM118.402 29C102.056 29 88.7884 38.3903 88.7884 49.9872C88.7884 61.584 102.056 70.9743 118.402 70.9743C134.747 70.9743 148.015 61.584 148.015 49.9872C148.015 38.3903 134.747 29 118.402 29ZM21.182 61.1991C14.9489 61.1991 9.87975 56.1961 9.87975 50.0128C9.87975 43.8296 14.9231 38.8009 21.1561 38.8009C27.3891 38.8009 32.4583 43.8039 32.4583 49.9872V50.0128C32.4583 56.1704 27.415 61.1735 21.182 61.1991ZM21.182 29C9.4918 29 0.0258632 38.3903 0 49.9872C0 61.584 9.46594 70.9743 21.1561 71C32.8463 71 42.3122 61.6096 42.3381 50.0128V49.9872C42.3122 38.3903 32.8463 29 21.182 29Z" fill="#005BFF"/>
</svg>
