<svg width="275" height="100" viewBox="0 0 275 100" fill="none" xmlns="http://www.w3.org/2000/svg">
<g clip-path="url(#clip0_273_872)">
<path fill-rule="evenodd" clip-rule="evenodd" d="M130.469 43.5156V64.7434H127.408V46.2303H117.959V57.979C117.959 61.9842 116.406 64.8769 112.192 64.8769C111.792 64.8769 111.57 64.8324 111.216 64.7879L110.772 62.0287H111.482C114.631 62.0287 114.942 60.3821 114.942 57.1779V43.5156H130.469Z" fill="#F6A53D"/>
<path fill-rule="evenodd" clip-rule="evenodd" d="M85.4413 43.5156V64.7434H82.3803V46.2303H71.4672V64.7434H68.4062V43.5156H85.4413Z" fill="#F6A53D"/>
<path fill-rule="evenodd" clip-rule="evenodd" d="M138.676 43.5156V59.2696L150.653 43.5156H153.226V64.7434H150.165V48.9449L138.143 64.7434H135.615V43.5156H138.676Z" fill="#F6A53D"/>
<path fill-rule="evenodd" clip-rule="evenodd" d="M178.113 64.7434H175.052V48.2329H175.008L168.487 56.4659H167.999L161.478 48.2329H161.389V64.7434H158.328V43.5156H161.211L168.221 52.2381L175.274 43.5156H178.113V64.7434Z" fill="#F6A53D"/>
<path fill-rule="evenodd" clip-rule="evenodd" d="M196.036 43.5156V46.2303H186.32V52.4161H195.814V55.1753H186.32V62.0287H196.39V64.7434H183.259V43.5156H196.036Z" fill="#F6A53D"/>
<path fill-rule="evenodd" clip-rule="evenodd" d="M215.777 43.5156V46.2303H208.59V64.7434H205.573V46.2303H198.387V43.5156H215.777Z" fill="#F6A53D"/>
<path fill-rule="evenodd" clip-rule="evenodd" d="M234.409 64.7433H231.304L228.464 58.4685H219.459L216.753 64.7433H213.647L222.786 43.3821H224.915L234.409 64.7433ZM220.612 55.7538H227.178L223.762 48.0549L220.612 55.7538Z" fill="#F6A53D"/>
<path fill-rule="evenodd" clip-rule="evenodd" d="M254.283 43.5156V64.7434H251.222V46.2303H242.083V57.979C242.083 61.9842 240.531 64.8769 236.316 64.8769C235.917 64.8769 235.695 64.8324 235.34 64.7879L234.897 62.0287H235.607C238.756 62.0287 239.022 60.3821 239.022 57.1779V43.5156H254.283Z" fill="#F6A53D"/>
<path fill-rule="evenodd" clip-rule="evenodd" d="M275 43.5156V64.7434H271.939V46.2303H262.8V57.979C262.8 61.9842 261.248 64.8769 257.033 64.8769C256.634 64.8769 256.412 64.8324 256.057 64.7879L255.614 62.0287H256.324C259.473 62.0287 259.739 60.3821 259.739 57.1779V43.5156H275Z" fill="#F6A53D"/>
<path fill-rule="evenodd" clip-rule="evenodd" d="M99.4597 43.2041C106.114 43.2041 110.328 48.1884 110.328 54.1072C110.328 59.8481 106.247 65.0104 99.4153 65.0104C92.8054 65.0104 88.6353 59.8926 88.6353 54.1072C88.591 48.1884 92.8941 43.2041 99.4597 43.2041ZM99.4597 62.2067C103.985 62.2067 107.356 58.7355 107.356 54.1072C107.356 49.4345 104.029 46.0078 99.4597 46.0078C94.9348 46.0078 91.6076 49.4345 91.6076 54.1072C91.6076 58.691 94.9348 62.2067 99.4597 62.2067Z" fill="#F6A53D"/>
<path fill-rule="evenodd" clip-rule="evenodd" d="M33.4933 61.0497L3.23843 68.3482L0 74H48.9313L37.6633 62.1178C36.5099 60.8717 35.2678 60.6047 33.4933 61.0497Z" fill="#F6A53D"/>
<path fill-rule="evenodd" clip-rule="evenodd" d="M23.7781 58.6021L32.6061 28.6963L29.3677 23L4.87988 65.5L20.8058 61.6728C22.4029 61.2723 23.2901 60.3377 23.7781 58.6021Z" fill="#F6A53D"/>
<path fill-rule="evenodd" clip-rule="evenodd" d="M30.7429 51.3927L52.1697 74H58.6909L34.2475 31.5L29.5895 47.2539C29.1459 48.856 29.5008 50.0576 30.7429 51.3927Z" fill="#F6A53D"/>
</g>
<defs>
<clipPath id="clip0_273_872">
<rect width="275" height="51" fill="white" transform="translate(0 23)"/>
</clipPath>
</defs>
</svg>
