<svg width="252" height="100" viewBox="0 0 252 100" fill="none" xmlns="http://www.w3.org/2000/svg">
<g clip-path="url(#clip0_273_891)">
<path d="M28.9342 46.4932C26.7703 44.5054 23.3699 44.6918 21.3915 46.866C19.4131 49.0401 19.5986 52.4567 21.7624 54.4445C23.9263 56.4323 27.3267 56.246 29.3051 54.0718C31.2835 51.8976 31.1599 48.4811 28.9342 46.4932Z" fill="url(#paint0_radial_273_891)"/>
<path d="M10.1393 30.1559C6.67712 32.827 3.83316 36.3057 2.10205 40.4056C4.20411 40.9025 10.5103 43.0146 13.4161 50.8416C14.2816 50.531 16.1364 49.475 17.4966 45.1888C19.2277 39.4738 22.5662 34.0073 26.8322 32.2058C22.5044 27.9196 16.8783 26.9257 10.1393 30.1559Z" fill="url(#paint1_linear_273_891)"/>
<path d="M44.9469 34.2558C40.2481 28.6029 33.2619 25 25.3482 25C19.5985 25 14.3433 26.9257 10.0774 30.1559C19.4748 25.6833 26.7702 29.3484 31.1598 38.6041C38.2079 39.8465 43.0303 36.3057 44.9469 34.2558Z" fill="url(#paint2_linear_273_891)"/>
<path d="M15.4562 73.9501C19.4749 75.6895 23.9263 76.3107 28.3159 75.8137C27.6976 73.7016 26.3375 67.1791 31.6544 60.7187C30.9744 60.0975 29.0578 59.0415 24.7918 60.0354C19.0421 61.3399 12.6741 61.2156 8.90273 58.3582C7.35709 64.2595 9.3355 69.6639 15.4562 73.9501Z" fill="url(#paint3_linear_273_891)"/>
<path d="M1.60729 41.6479C-0.927546 48.5432 -0.494769 56.4324 3.40023 63.2655C6.24419 68.235 10.572 71.9001 15.4562 74.0121C6.92427 68.0487 6.49149 59.911 12.2412 51.4628C9.76823 44.6297 4.32761 42.207 1.60729 41.6479Z" fill="url(#paint4_linear_273_891)"/>
<path d="M50.573 47.425C50.0166 43.0767 48.4091 38.8526 45.7506 35.3118C44.2668 36.8648 39.3208 41.3373 31.098 39.9086C30.9125 40.8404 30.9125 43.0146 33.942 46.2448C37.9606 50.5931 41.0519 56.246 40.4336 60.9049C46.2452 59.2898 49.9547 54.8794 50.573 47.425Z" fill="url(#paint5_linear_273_891)"/>
<path d="M29.6143 75.6272C36.7861 74.3849 43.4014 70.0986 47.3582 63.2655C50.2022 58.2959 51.1914 52.7052 50.5731 47.425C49.7076 57.799 42.9068 62.2716 32.7674 61.5261C28.1305 66.9927 28.7488 72.9561 29.6143 75.6272Z" fill="url(#paint6_linear_273_891)"/>
<path d="M67.1423 63.949H61.3926V37.0513H70.6045C72.2738 37.0513 73.8195 37.2376 75.1796 37.6103C76.5398 37.9831 77.6526 38.5421 78.6418 39.2254C79.5692 39.9709 80.3111 40.9027 80.8676 42.0208C81.3622 43.139 81.6095 44.5056 81.6095 46.0586C81.6095 47.5494 81.3622 48.9161 80.8057 50.0963C80.3111 51.2766 79.5074 52.2705 78.5182 53.0781C77.529 53.8856 76.2925 54.5068 74.8705 54.9416C73.4485 55.3765 71.8411 55.5628 70.0481 55.5628H67.0805V63.949H67.1423ZM67.0187 50.4691H70.1718C71.9029 50.4691 73.263 50.1585 74.2522 49.4751C75.2414 48.7918 75.6742 47.7358 75.6742 46.3071C75.6742 44.8162 75.1796 43.698 74.2522 43.0768C73.3249 42.4557 71.9647 42.1451 70.1718 42.1451H67.0187V50.4691Z" fill="#3C3C3B"/>
<path d="M98.9206 64.3837C97.004 64.3837 95.2111 64.0731 93.6036 63.4519C91.9961 62.8307 90.636 61.961 89.5231 60.7808C88.3484 59.6005 87.4829 58.1717 86.8646 56.4324C86.2464 54.6931 85.9373 52.7052 85.9373 50.4689C85.9373 48.2326 86.2464 46.2448 86.9265 44.5055C87.6065 42.7661 88.4721 41.3374 89.6468 40.1571C90.8215 38.9769 92.1816 38.1072 93.7273 37.486C95.2729 36.8648 97.004 36.5542 98.8587 36.5542C100.899 36.5542 102.754 36.8648 104.361 37.486C105.969 38.1072 107.329 39.039 108.442 40.2192C109.555 41.3995 110.42 42.8904 110.977 44.5676C111.533 46.3069 111.842 48.2326 111.842 50.4068C111.842 52.7674 111.533 54.8794 110.853 56.6188C110.173 58.3581 109.307 59.849 108.133 60.9671C106.958 62.0853 105.598 62.9549 104.052 63.514C102.445 64.1352 100.775 64.3837 98.9206 64.3837ZM99.1061 59.352C100.095 59.352 100.961 59.1657 101.765 58.7929C102.568 58.4202 103.31 57.8611 103.867 57.1778C104.423 56.4324 104.918 55.5627 105.227 54.4446C105.536 53.3264 105.721 52.0219 105.721 50.5311C105.721 47.4872 105.103 45.2509 103.805 43.8222C102.506 42.3934 100.837 41.7101 98.7351 41.7101C97.8077 41.7101 96.8803 41.8965 96.0766 42.2692C95.2729 42.6419 94.531 43.201 93.9127 43.8843C93.2945 44.6297 92.7999 45.5615 92.4907 46.6797C92.1198 47.7978 91.9961 49.1023 91.9961 50.5932C91.9961 52.084 92.1816 53.3885 92.5526 54.5067C92.9235 55.6248 93.4181 56.4945 94.0364 57.24C94.6546 57.9854 95.3965 58.5445 96.2621 58.8551C97.1895 59.1657 98.1168 59.352 99.1061 59.352Z" fill="#3C3C3B"/>
<path d="M137.499 62.8927C137.128 63.0791 136.758 63.2654 136.325 63.4518C135.892 63.6381 135.397 63.8245 134.841 63.9487C134.285 64.073 133.604 64.1972 132.863 64.3214C132.121 64.3836 131.255 64.4457 130.266 64.4457C128.226 64.4457 126.371 64.1351 124.702 63.576C123.032 63.0169 121.61 62.1473 120.436 60.967C119.261 59.8489 118.334 58.4201 117.654 56.7429C116.973 55.0657 116.664 53.0778 116.664 50.9037C116.664 48.6052 116.973 46.5553 117.654 44.7538C118.334 42.9524 119.261 41.4615 120.436 40.2813C121.672 39.101 123.156 38.1692 124.887 37.548C126.618 36.9268 128.597 36.6162 130.822 36.6162C132.244 36.6162 133.604 36.7404 134.717 36.9889C135.892 37.2374 136.819 37.548 137.499 37.8586L136.263 42.7039C135.459 42.3933 134.594 42.207 133.79 42.0827C132.924 41.9585 132.244 41.8964 131.626 41.8964C130.328 41.8964 129.091 42.0827 128.04 42.3933C126.927 42.7039 126 43.263 125.258 43.9463C124.454 44.6296 123.898 45.5614 123.465 46.6174C123.032 47.7356 122.847 48.978 122.847 50.4688C122.847 53.3263 123.651 55.4384 125.258 56.8671C126.865 58.2959 128.968 59.0413 131.688 59.0413C132.306 59.0413 133.048 58.9792 133.914 58.7928C134.779 58.6065 135.645 58.358 136.448 57.9853L137.499 62.8927Z" fill="#3C3C3B"/>
<path d="M159.262 58.0476H148.999L147.082 63.949H141.456L150.606 37.0513H158.087L167.114 63.949H161.24L159.262 58.0476ZM150.545 53.0159H157.716L154.192 41.7102L150.545 53.0159Z" fill="#3C3C3B"/>
<path d="M180.097 63.949H174.347V42.3314H166.743V37.0513H187.64V42.3314H180.097V63.949Z" fill="#3C3C3B"/>
<path d="M203.343 64.3837C201.427 64.3837 199.634 64.0731 198.026 63.4519C196.419 62.8307 195.059 61.961 193.946 60.7808C192.771 59.6005 191.906 58.1717 191.287 56.4324C190.669 54.6931 190.36 52.7052 190.36 50.4689C190.36 48.2326 190.669 46.2448 191.349 44.5055C192.029 42.7661 192.895 41.3374 194.07 40.1571C195.244 38.9769 196.604 38.1072 198.15 37.486C199.696 36.8648 201.427 36.5542 203.282 36.5542C205.322 36.5542 207.177 36.8648 208.784 37.486C210.392 38.1072 211.752 39.039 212.865 40.2192C213.977 41.3995 214.843 42.8904 215.399 44.5676C215.956 46.3069 216.265 48.2326 216.265 50.4068C216.265 52.7674 215.956 54.8794 215.276 56.6188C214.596 58.3581 213.73 59.849 212.555 60.9671C211.381 62.0853 210.021 62.9549 208.475 63.514C206.867 64.1352 205.136 64.3837 203.343 64.3837ZM203.529 59.352C204.518 59.352 205.384 59.1657 206.187 58.7929C206.991 58.4202 207.733 57.8611 208.289 57.1778C208.846 56.4324 209.34 55.5627 209.65 54.4446C209.959 53.3264 210.144 52.0219 210.144 50.5311C210.144 47.4872 209.526 45.2509 208.228 43.8222C206.929 42.3934 205.26 41.7101 203.158 41.7101C202.231 41.7101 201.303 41.8965 200.499 42.2692C199.696 42.6419 198.954 43.201 198.336 43.8843C197.717 44.6297 197.223 45.5615 196.914 46.6797C196.543 47.7978 196.419 49.1023 196.419 50.5932C196.419 52.084 196.604 53.3885 196.975 54.5067C197.346 55.6248 197.841 56.4945 198.459 57.24C199.077 57.9854 199.819 58.5445 200.685 58.8551C201.612 59.1657 202.54 59.352 203.529 59.352Z" fill="#3C3C3B"/>
<path d="M252 63.949H246.25L244.828 46.1207L239.264 63.949H233.823L228.383 46.1828L226.899 63.949H221.149L223.808 37.0513H230.67L236.729 57.3022L242.664 37.0513H249.28L252 63.949Z" fill="#3C3C3B"/>
</g>
<defs>
<radialGradient id="paint0_radial_273_891" cx="0" cy="0" r="1" gradientUnits="userSpaceOnUse" gradientTransform="translate(23.669 47.5144) scale(7.50232 7.538)">
<stop stop-color="#4A96D2"/>
<stop offset="1" stop-color="#1F2466"/>
</radialGradient>
<linearGradient id="paint1_linear_273_891" x1="7.38156" y1="46.895" x2="20.0836" y2="27.4283" gradientUnits="userSpaceOnUse">
<stop stop-color="#4A96D2"/>
<stop offset="1" stop-color="#1F2466"/>
</linearGradient>
<linearGradient id="paint2_linear_273_891" x1="12.4178" y1="24.3966" x2="43.8033" y2="37.0171" gradientUnits="userSpaceOnUse">
<stop stop-color="#4A96D2"/>
<stop offset="1" stop-color="#1F2466"/>
</linearGradient>
<linearGradient id="paint3_linear_273_891" x1="31.2712" y1="67.9549" x2="8.13715" y2="66.7486" gradientUnits="userSpaceOnUse">
<stop stop-color="#4A96D2"/>
<stop offset="1" stop-color="#1F2466"/>
</linearGradient>
<linearGradient id="paint4_linear_273_891" x1="9.36291" y1="74.8225" x2="4.61313" y2="41.1905" gradientUnits="userSpaceOnUse">
<stop stop-color="#4A96D2"/>
<stop offset="1" stop-color="#1F2466"/>
</linearGradient>
<linearGradient id="paint5_linear_273_891" x1="37.4771" y1="36.6368" x2="48.0737" y2="57.3363" gradientUnits="userSpaceOnUse">
<stop stop-color="#4A96D2"/>
<stop offset="1" stop-color="#1F2466"/>
</linearGradient>
<linearGradient id="paint6_linear_273_891" x1="54.3509" y1="52.2684" x2="27.6148" y2="73.0574" gradientUnits="userSpaceOnUse">
<stop stop-color="#4A96D2"/>
<stop offset="1" stop-color="#1F2466"/>
</linearGradient>
<clipPath id="clip0_273_891">
<rect width="252" height="51" fill="white" transform="translate(0 25)"/>
</clipPath>
</defs>
</svg>
