<svg width="73" height="100" viewBox="0 0 73 100" fill="none" xmlns="http://www.w3.org/2000/svg">
<g clip-path="url(#clip0_273_910)">
<g clip-path="url(#clip1_273_910)">
<path fill-rule="evenodd" clip-rule="evenodd" d="M19.5976 90.8942C21.2195 90.8942 22.5355 92.3714 22.5355 94.1912C22.5355 96.011 21.2195 97.4882 19.5976 97.4882C17.9758 97.4882 16.6599 96.011 16.6599 94.1912C16.6599 92.3714 17.9758 90.8942 19.5976 90.8942V90.8942ZM19.5976 88.3824C22.8289 88.3824 25.4494 90.9837 25.4494 94.1912C25.4494 97.3987 22.8289 100 19.5976 100C16.3664 100 13.7459 97.3987 13.7459 94.1912C13.7459 90.9837 16.3664 88.3824 19.5976 88.3824ZM33.2828 90.8942C34.2856 90.8942 35.2288 91.3434 35.759 92.2046L37.6812 90.361C36.6086 89.1484 35.0357 88.3824 33.2828 88.3824C30.0516 88.3824 27.4311 90.9837 27.4311 94.1912C27.4311 97.3987 30.0516 100 33.2828 100C35.0764 100 36.6814 99.1981 37.7548 97.9362L35.7575 96.226C35.2242 97.0599 34.2666 97.4882 33.2828 97.4882C31.661 97.4882 30.345 96.011 30.345 94.1912C30.345 92.3714 31.661 90.8942 33.2828 90.8942V90.8942ZM52.6255 94.9536H61.0307C61.0625 94.7041 61.079 94.4496 61.079 94.1912C61.079 90.9837 58.5514 88.3824 55.4348 88.3824C52.3182 88.3824 49.7907 90.9837 49.7907 94.1912C49.7907 97.3987 52.3182 100 55.4348 100C57.2122 100 59.2558 99.6983 60.2904 98.3763L59.0054 96.5164C58.3608 97.4432 56.6553 97.7013 55.5671 97.7013C54.1286 97.7013 52.9247 96.5249 52.6256 94.9536H52.6255ZM52.6896 93.1478C53.0712 91.7193 54.2156 90.6811 55.567 90.6811C56.9185 90.6811 58.0629 91.7193 58.4446 93.1478H52.6896ZM39.4521 88.6478H48.4976V91.1402H45.3714V99.7345H42.5782V91.1402H39.4521V88.6478V88.6478ZM65.7023 94.019L61.8946 88.6478H65.2583L67.5372 92.0798L69.8161 88.6478H73.1798L69.3722 94.019L73.3522 99.7345H70.1018L67.5372 96.0237L64.9727 99.7345H61.7222L65.7023 94.019V94.019ZM67.5372 92.5991L67.5241 92.621L67.5372 92.6213L67.5503 92.621L67.5372 92.5991ZM6.95118 87.1916C8.16433 87.1916 9.14811 88.1754 9.14811 89.3885C9.14811 90.6017 8.16433 91.5855 6.95118 91.5855H3.24829V87.1916H6.95118ZM0.180176 84.5828H7.58273C10.2365 84.5828 12.3886 86.7348 12.3886 89.3885C12.3886 92.0423 10.2364 94.1943 7.58273 94.1943H3.24829V99.7345H0.180176V84.5828V84.5828Z" fill="black"/>
<path fill-rule="evenodd" clip-rule="evenodd" d="M9.36757 9.36757H33.8607L24.4932 0H0V24.4932L9.36757 33.8608V9.36757V9.36757ZM38.9181 9.36757H63.4112V33.8608L72.7788 24.4932V0H48.2857L38.9181 9.36757V9.36757ZM63.4112 38.918V63.4112H38.9181L48.2857 72.7788H72.7788V48.2856L63.4112 38.918V38.918ZM33.8607 63.4112H9.36757V38.918L0 48.2856V72.7788H24.4932L33.8607 63.4112V63.4112Z" fill="black"/>
</g>
</g>
<defs>
<clipPath id="clip0_273_910">
<rect width="73" height="100" fill="white"/>
</clipPath>
<clipPath id="clip1_273_910">
<rect width="81.6667" height="100" fill="white"/>
</clipPath>
</defs>
</svg>
