<svg width="300" height="100" viewBox="0 0 300 100" fill="none" xmlns="http://www.w3.org/2000/svg">
<path d="M134.139 40.0145L140.393 35.4475H119.456V62.8047H140.393V58.2377H125.438V51.2529H138.218V46.6859H125.438V40.0145H134.139Z" fill="#21A038"/>
<path d="M103.641 46.1038H96.3898V40.0145H107.991L114.245 35.4475H90.408V62.8047H102.87C109.849 62.8047 113.882 59.6705 113.882 54.208C113.882 48.9694 110.257 46.1038 103.641 46.1038ZM102.644 58.2377H96.3898V50.6708H102.644C106.45 50.6708 108.218 51.9245 108.218 54.4766C108.218 57.0288 106.314 58.2377 102.644 58.2377Z" fill="#21A038"/>
<path d="M157.341 35.4475H145.967V62.8047H151.949V55.0587H157.387C164.637 55.0587 169.169 51.2977 169.169 45.2531C169.169 39.2086 164.637 35.4475 157.341 35.4475ZM157.205 50.4917H151.903V40.0145H157.205C161.057 40.0145 163.142 41.895 163.142 45.2531C163.142 48.6112 161.057 50.4917 157.205 50.4917Z" fill="#21A038"/>
<path d="M80.1661 56.8943C78.58 57.745 76.8127 58.1927 75 58.1927C69.6072 58.1927 65.7099 54.3869 65.7099 49.1483C65.7099 43.9097 69.6072 40.1038 75 40.1038C76.9486 40.0591 78.8519 40.6859 80.438 41.8053L84.7432 38.6711L84.4713 38.4024C81.9788 36.2085 78.6254 35.0891 74.8187 35.0891C70.6948 35.0891 66.9335 36.4771 64.2145 38.9845C61.4954 41.5814 59.9547 45.2081 60.0453 48.9692C60 52.775 61.4954 56.4465 64.2145 59.133C67.0695 61.7747 70.8761 63.2522 74.7734 63.1627C79.0785 63.1627 82.8398 61.6851 85.3776 58.9986L81.5257 56.1779L80.1661 56.8943Z" fill="#21A038"/>
<path d="M241.088 35.4923V62.8495H247.069V51.6558H259.804V62.8495H265.786V35.4923H259.804V46.7307H247.069V35.4923H241.088ZM230.801 62.8495H237.1L225.408 35.4923H219.335L207.417 62.8495H213.444L215.846 57.3422H228.535L230.801 62.8495ZM217.659 52.7752L222.281 41.8055L226.631 52.7752H217.659ZM279.199 51.7902H282.915L292.07 62.8047H299.773L287.538 48.656L298.233 35.4475H291.39L282.508 47.1784H279.199V35.4475H273.218V62.8047H279.199V51.7902ZM187.659 46.1486V40.0593H203.293V35.4923H181.677V62.8495H194.139C201.118 62.8495 205.151 59.7152 205.151 54.2528C205.151 49.0142 201.526 46.1486 194.909 46.1486H187.659ZM187.659 58.2825V50.7156H193.912C197.719 50.7156 199.486 51.9693 199.486 54.5214C199.486 57.0736 197.628 58.3272 193.912 58.3272H187.659V58.2825Z" fill="#21A038"/>
<path d="M41.3292 35.2683C42.4168 36.6563 43.3232 38.1786 44.0936 39.7905L23.157 55.0586L14.3655 49.5961V43.0591L23.1117 48.4768L41.3292 35.2683Z" fill="#21A038"/>
<path d="M5.4381 49.1484C5.4381 48.835 5.4381 48.5663 5.48342 48.2529L0.181304 47.9843C0.181304 48.3424 0.135986 48.7454 0.135986 49.1036C0.135986 55.372 2.71907 61.0584 6.88825 65.1776L10.6496 61.4614C7.43206 58.3271 5.4381 53.984 5.4381 49.1484Z" fill="url(#paint0_linear_273_798)"/>
<path d="M23.1117 31.6865C23.429 31.6865 23.7009 31.6865 24.0181 31.7313L24.29 26.4927C23.9275 26.4927 23.5196 26.4479 23.1571 26.4479C16.8127 26.4479 11.0574 29 6.88818 33.1193L10.6495 36.8355C13.8217 33.6566 18.2628 31.6865 23.1117 31.6865Z" fill="url(#paint1_linear_273_798)"/>
<path d="M23.1118 66.6104C22.7946 66.6104 22.5227 66.6104 22.2055 66.5656L21.9336 71.8042C22.2961 71.8042 22.704 71.849 23.0665 71.849C29.4109 71.849 35.1662 69.2968 39.3354 65.1776L35.5741 61.4613C32.4019 64.6851 28.0061 66.6104 23.1118 66.6104Z" fill="url(#paint2_linear_273_798)"/>
<path d="M33.0816 34.7311L37.568 31.4626C33.6254 28.3284 28.5952 26.4031 23.1118 26.4031V31.6417C26.8278 31.6865 30.2719 32.8058 33.0816 34.7311Z" fill="url(#paint3_linear_273_798)"/>
<path d="M46.1329 49.1484C46.1329 47.7604 45.9969 46.4172 45.7704 45.074L40.8308 48.7007C40.8308 48.835 40.8308 49.0141 40.8308 49.1484C40.8308 54.2975 38.5649 58.9093 34.9849 62.0883L38.5649 65.9836C43.1873 61.8644 46.1329 55.8198 46.1329 49.1484Z" fill="#21A038"/>
<path d="M23.1118 66.6104C17.9003 66.6104 13.2326 64.3717 10.0151 60.8345L6.07251 64.3717C10.287 68.9834 16.3595 71.849 23.1118 71.849V66.6104Z" fill="url(#paint4_linear_273_798)"/>
<path d="M11.284 36.2086L7.70396 32.3132C3.03629 36.4773 0.135986 42.477 0.135986 49.1484H5.4381C5.4381 44.0441 7.70396 39.3876 11.284 36.2086Z" fill="url(#paint5_linear_273_798)"/>
<defs>
<linearGradient id="paint0_linear_273_798" x1="6.3398" y1="64.5403" x2="1.02855" y2="49.0513" gradientUnits="userSpaceOnUse">
<stop offset="0.1444" stop-color="#F2E913"/>
<stop offset="0.3037" stop-color="#E7E518"/>
<stop offset="0.5823" stop-color="#CADB26"/>
<stop offset="0.891" stop-color="#A3CD39"/>
</linearGradient>
<linearGradient id="paint1_linear_273_798" x1="8.39956" y1="32.5119" x2="22.1134" y2="27.2394" gradientUnits="userSpaceOnUse">
<stop offset="0.0592" stop-color="#0FA8E0"/>
<stop offset="0.5385" stop-color="#0099F9"/>
<stop offset="0.9234" stop-color="#0291EB"/>
</linearGradient>
<linearGradient id="paint2_linear_273_798" x1="21.6223" y1="67.3803" x2="37.994" y2="63.6472" gradientUnits="userSpaceOnUse">
<stop offset="0.1226" stop-color="#A3CD39"/>
<stop offset="0.2846" stop-color="#86C339"/>
<stop offset="0.8693" stop-color="#21A038"/>
</linearGradient>
<linearGradient id="paint3_linear_273_798" x1="22.0224" y1="29.7548" x2="35.6266" y2="33.9896" gradientUnits="userSpaceOnUse">
<stop offset="0.0566" stop-color="#0291EB"/>
<stop offset="0.79" stop-color="#0C8ACB"/>
</linearGradient>
<linearGradient id="paint4_linear_273_798" x1="7.42065" y1="65.2225" x2="22.0179" y2="70.725" gradientUnits="userSpaceOnUse">
<stop offset="0.1324" stop-color="#F2E913"/>
<stop offset="0.2977" stop-color="#EBE716"/>
<stop offset="0.5306" stop-color="#D9E01F"/>
<stop offset="0.8023" stop-color="#BBD62D"/>
<stop offset="0.9829" stop-color="#A3CD39"/>
</linearGradient>
<linearGradient id="paint5_linear_273_798" x1="4.1704" y1="49.7812" x2="9.91635" y2="34.7011" gradientUnits="userSpaceOnUse">
<stop offset="0.0698" stop-color="#A3CD39"/>
<stop offset="0.2599" stop-color="#81C55F"/>
<stop offset="0.9216" stop-color="#0FA8E0"/>
</linearGradient>
</defs>
</svg>
