<svg width="156" height="100" viewBox="0 0 156 100" fill="none" xmlns="http://www.w3.org/2000/svg">
<path d="M0 40.4246V48.7979L22.9008 46.3132V37.2504L0 40.4246ZM7.30804 49.3072V78H15.6922V48.4621L7.30804 49.3072ZM25.9937 36.8218V78H34.8282V35.5966L25.9937 36.8218ZM36.4742 35.3683V44.841L49.2313 43.4566V33.6003L36.4742 35.3683ZM36.4742 51.8914V61.5367L44.8484 61.0862V51.1805L36.4742 51.8914ZM36.4742 68.489V78H49.2313V68.1094L36.4742 68.489ZM82.2229 29.0123V78H93.8044V27.4067L82.2229 29.0123ZM95.9671 27.1065V38.3748L112.845 36.5444V24.7663L95.9671 27.1065ZM95.9671 46.8493V58.3263L107.03 57.7305V45.9149L95.9671 46.8493ZM95.9671 66.7152V78H112.845V66.2126L95.9671 66.7152ZM52.6068 33.1316V78H62.6704V31.736L52.6068 33.1316ZM64.5487 67.6536V77.9995H79.1567V67.2188L64.5487 67.6536ZM150.684 24.2124C147.024 20.8014 141.657 19.4022 135.787 20.234V32.732C138.164 32.6017 140.09 33.4719 140.949 35.2238C142.304 37.9859 140.906 42.1301 137.607 45.9698C132.517 51.895 118.98 64.0227 118.98 64.0227L138.413 63.3925C150.286 51.9507 154.55 45.0055 155.315 36.3375C155.717 31.7516 154.03 27.3331 150.684 24.2124ZM156 78V64.9227L116.585 66.0939M116.585 66.0935L116.589 77.9995H156M133.521 20.5146C122.071 22.9199 116.448 31.2289 117.097 44.787L129.305 43.7184C128.749 36.0587 131.125 34.2417 133.527 33.2426L133.521 20.5146Z" fill="#141414"/>
</svg>
