<svg width="197" height="100" viewBox="0 0 197 100" fill="none" xmlns="http://www.w3.org/2000/svg">
<path fill-rule="evenodd" clip-rule="evenodd" d="M62.228 62.1999H55.0735L58.4012 56.3764L50.2483 42.0673H57.5692L61.7289 50.5529L65.8885 42.0673H73.043L62.228 62.1999Z" fill="#253081"/>
<path fill-rule="evenodd" clip-rule="evenodd" d="M152.242 62.1999H143.257C138.266 62.1999 134.439 58.2066 134.439 52.3831C134.439 45.8941 138.266 42.0673 143.257 42.0673H152.242V47.0588H146.419C142.925 47.0588 140.928 48.0571 140.928 52.2168C140.928 56.21 142.925 57.0419 146.419 57.0419H152.242V62.1999Z" fill="#253081"/>
<path fill-rule="evenodd" clip-rule="evenodd" d="M175.536 62.1999H169.047V48.0571L161.394 62.1999H153.573V42.0673H160.062V55.7108L167.716 42.0673H175.536V62.1999Z" fill="#253081"/>
<path fill-rule="evenodd" clip-rule="evenodd" d="M90.6799 62.1999L99.1656 42.0673H106.487L113.475 58.7058L120.463 42.0673H127.784L136.269 62.1999H129.281L124.123 47.7244L118.965 62.1999H114.806H111.977H107.984L106.487 58.0402H99.1656L97.5017 62.1999H90.6799Z" fill="#253081"/>
<path fill-rule="evenodd" clip-rule="evenodd" d="M102.826 47.724L100.663 53.3811H104.822L102.826 47.724Z" fill="white"/>
<path fill-rule="evenodd" clip-rule="evenodd" d="M80.0313 62.1999H73.5422V42.0673H87.0194C93.8412 42.0673 93.8412 47.7244 93.8412 48.8891C93.8412 50.2201 93.8412 56.21 87.0194 56.21H80.0313V62.1999Z" fill="#253081"/>
<path fill-rule="evenodd" clip-rule="evenodd" d="M80.0312 51.3846H84.69C85.3556 51.3846 87.3522 51.3846 87.3522 49.2216C87.3522 47.0586 85.522 47.0586 84.69 47.0586H80.0312V51.3846Z" fill="white"/>
<path fill-rule="evenodd" clip-rule="evenodd" d="M196.002 42.0673V47.0588H183.356V49.721H190.012C197 49.721 197 53.7142 197 55.8772C197 58.2066 197 62.1999 190.178 62.1999H176.867V42.0673H196.002Z" fill="#253081"/>
<path fill-rule="evenodd" clip-rule="evenodd" d="M183.523 54.3793V57.5406H189.014C190.511 57.5406 190.511 56.3759 190.511 55.8767C190.511 55.544 190.511 54.3793 189.014 54.3793H183.523Z" fill="white"/>
<path fill-rule="evenodd" clip-rule="evenodd" d="M20.9645 32.0838C21.4637 32.0838 21.9628 32.0838 22.462 32.2502L22.2956 18.6066H23.9595C23.9595 18.6066 23.7931 22.4334 24.4586 32.5829C33.4434 34.5795 40.2652 42.3996 40.2652 52.05C40.2652 59.2045 36.4383 65.3608 30.9476 68.8549C30.7812 68.6885 30.6149 68.3557 30.4485 68.1893C24.4586 60.5356 22.9611 49.2214 22.6284 39.4047C23.4603 39.5711 24.2922 39.7375 25.1241 39.7375C26.788 50.5525 31.7796 57.7071 35.9392 62.1995C37.7694 59.7037 38.9341 56.8752 38.9341 53.7138C38.9341 50.0534 37.4366 46.892 35.1073 44.2299C32.7779 41.5677 29.4502 39.5711 25.4569 38.5728C23.7931 38.24 21.9628 37.9072 20.1326 37.9072C18.3024 37.9072 16.6385 38.0736 14.8083 38.5728C6.98817 40.5694 1.33108 46.5593 1.33108 53.7138C1.33108 56.8752 2.49578 59.7037 4.32601 62.1995C8.31925 57.8735 13.3108 50.7189 14.9747 39.9039C15.8066 39.7375 16.6385 39.7375 17.6368 39.5711C17.1377 49.3878 15.8066 60.702 9.81672 68.3557V68.1893C9.65034 68.5221 9.31757 68.8549 9.15118 69.0213C3.49409 65.3608 0 59.2045 0 52.05C0 42.3996 6.6554 34.5795 15.8066 32.5829C16.3057 22.4334 16.3057 18.6066 16.3057 18.6066H17.9696L17.8032 32.2502C18.3024 32.0838 18.8015 32.0838 19.1343 32.0838V11.9512H20.9645V32.0838V32.0838ZM21.1309 39.4047C21.2973 48.8887 21.9628 60.702 25.1241 68.6885C25.4569 69.5204 25.9561 70.5187 26.4552 71.3507C24.4586 71.8498 22.2956 72.349 20.299 72.349C18.136 72.349 15.973 72.0162 14.1427 71.3507C14.6419 70.3523 15.141 69.354 15.4738 68.3557C18.4687 60.3692 19.3007 48.7223 19.3007 39.2383C19.4671 39.2383 19.9662 39.2383 20.299 39.2383C20.4654 39.4047 20.7981 39.4047 21.1309 39.4047Z" fill="#253081"/>
</svg>
