<svg width="176" height="100" viewBox="0 0 176 100" fill="none" xmlns="http://www.w3.org/2000/svg">
<g clip-path="url(#clip0_1_800)">
<path fill-rule="evenodd" clip-rule="evenodd" d="M168.1 39.6997L162 47.4997V39.6997H154.8L137 62.0997H144.9L155.6 48.5997V57.4997H161.9L168.9 48.5997V62.0997H175.9V39.6997H168.1ZM102.9 39.6997V59.7997H99.3V39.6997H92.3V62.0997H107.3L103.7 66.5997H111.4L116.8 59.8997H109.8V39.6997H102.9ZM80.9 39.6997L74.8 47.4997V39.6997H67.6L49.8 62.0997H57.7L68.4 48.5997V57.4997H74.7L81.7 48.5997V62.0997H88.7V39.6997H80.9ZM56.9 39.6997L50.7 47.4997V39.6997H43.7V56.3997L39.2 62.0997H47.1L64.8 39.6997H56.9ZM31.1 39.6997L25 47.4997V39.6997H17.8L0 62.0997H7.9L18.6 48.5997V57.4997H24.9L31.9 48.5997V62.0997H38.9V39.6997C39 39.6997 31.1 39.6997 31.1 39.6997Z" fill="#0C0C3D"/>
<mask id="mask0_1_800" style="mask-type:alpha" maskUnits="userSpaceOnUse" x="112" y="34" width="37" height="28">
<path fill-rule="evenodd" clip-rule="evenodd" d="M112.283 34.0068H148.683V61.9068H112.283V34.0068Z" fill="white"/>
</mask>
<g mask="url(#mask0_1_800)">
<path fill-rule="evenodd" clip-rule="evenodd" d="M123.283 61.9068H131.183C136.983 61.4068 141.483 56.5068 141.483 50.7068C141.483 46.2068 138.783 42.2068 134.883 40.5068L131.083 45.3068C133.783 45.7068 135.783 48.0068 135.783 50.7068C135.783 53.7068 133.283 56.2068 130.383 56.2068V39.5068H123.083C116.983 39.8068 112.283 44.7068 112.283 50.7068C112.283 54.1068 113.883 57.3068 116.483 59.5068C116.483 59.5068 116.683 59.6068 116.783 59.7068C117.983 58.3068 119.183 56.7068 120.383 55.3068C118.883 54.3068 117.983 52.6068 117.983 50.8068C117.983 48.0068 120.183 45.6068 122.983 45.3068H123.283C123.283 45.2068 123.283 61.9068 123.283 61.9068ZM134.783 40.4068L139.383 34.6068C139.483 34.4068 139.683 34.3068 139.983 34.3068C141.083 34.3068 142.183 35.5068 144.483 34.4068C146.483 33.5068 147.383 34.2068 148.583 34.4068C146.783 36.6068 145.583 38.2068 143.783 40.5068C142.783 39.9068 141.483 39.5068 138.683 40.2068C136.583 40.8068 136.083 40.4068 134.783 40.4068Z" fill="#33CCFF"/>
</g>
</g>
<defs>
<clipPath id="clip0_1_800">
<rect width="176" height="32.6" fill="white" transform="translate(0 34)"/>
</clipPath>
</defs>
</svg>
