<svg width="350" height="100" viewBox="0 0 350 100" fill="none" xmlns="http://www.w3.org/2000/svg">
<path d="M43.9105 6.18945C19.7726 6.18945 0 25.7052 0 50.0999C0 74.2379 19.5158 94.0104 43.9105 94.0104C68.0484 94.0104 87.821 74.4947 87.821 50.0999C87.821 25.7052 68.0484 6.18945 43.9105 6.18945ZM43.9105 90.4154C21.5701 90.4154 3.595 72.4404 3.595 50.0999C3.595 27.7595 21.5701 9.78447 43.9105 9.78447C66.2509 9.78447 84.226 27.7595 84.226 50.0999C84.4827 72.1836 66.2509 90.4154 43.9105 90.4154Z" fill="#77787B"/>
<path d="M43.9105 82.7116C45.4512 82.7116 46.2216 81.6844 46.4784 80.4005C46.7352 80.9141 47.2487 81.4276 47.7623 81.6844C48.2759 81.6844 49.0462 81.6844 49.5598 81.4276C50.0734 81.1708 50.5869 80.6573 50.8437 80.1437C51.1005 79.6301 51.1005 78.8598 50.8437 78.3462C51.6141 79.3733 52.6413 79.6301 53.9252 79.1166C55.4659 78.3462 55.9795 77.319 55.2091 75.7783C53.4116 71.413 51.6141 67.3044 49.8166 62.939C49.5598 62.4254 49.5598 62.1686 49.303 61.6551C49.0462 61.3983 49.0462 61.1415 48.7895 60.8847C48.7895 60.6279 48.5327 60.6279 48.2759 60.3711C51.1005 60.6279 52.3845 61.6551 53.1548 62.1686C53.4116 62.4254 53.4116 62.4254 54.182 62.1686C54.4388 62.1686 54.9523 62.1686 55.2091 62.1686C55.4659 62.4254 55.9795 62.6822 56.2362 62.6822C57.2634 63.4526 58.2905 64.2229 59.3177 64.9933C59.8313 65.5069 60.3448 66.0204 60.3448 66.7908C60.3448 67.3044 58.8041 68.5883 58.5473 69.1019C57.5202 70.129 59.0609 71.6697 61.1152 71.6697C60.6016 71.1562 60.3448 70.6426 60.6016 70.129C60.8584 70.129 61.1152 70.129 61.6288 69.8722C62.1423 69.6155 61.8856 68.3315 62.1423 68.0747C62.9127 67.3044 64.967 67.3044 66.5077 67.3044C67.0213 67.3044 67.7916 67.0476 67.5349 66.2772C68.3052 66.2772 68.562 67.0476 68.562 67.5612C69.3324 67.0476 69.8459 65.2501 67.2781 64.7365C67.7916 64.2229 68.562 64.2229 69.0756 64.7365C69.5891 63.9662 68.3052 62.6822 66.2509 63.4526C66.2509 63.4526 65.2238 62.1686 62.6559 65.2501C62.3991 64.9933 61.8856 64.7365 61.6288 64.4797C60.6016 63.4526 58.0338 60.8847 58.0338 60.8847C58.0338 59.344 57.777 56.5193 55.9795 54.9786C55.2091 54.2083 54.4388 53.9515 52.6413 53.4379C52.6413 53.4379 53.4116 52.154 53.6684 51.6404C55.2091 53.1811 58.2905 53.6947 58.2905 51.1268C60.8584 53.6947 63.1695 52.154 63.1695 50.6133C63.1695 51.3836 63.4263 52.154 63.6831 52.9243C63.9398 53.6947 65.2238 57.0329 68.0484 57.0329C68.0484 58.0601 68.0484 61.9119 71.6434 62.6822C71.9002 62.6822 71.9002 62.6822 72.157 62.939C73.6977 64.7365 79.6038 66.534 80.1174 66.0204C79.6038 65.7637 78.8335 65.2501 78.8335 63.1958C78.8335 61.9119 78.5767 54.7218 78.5767 44.7072C78.5767 41.1122 78.3199 29.5568 66.7645 28.016C64.967 27.7593 63.4263 28.016 61.8856 29.0432C59.8313 30.5839 58.8041 33.1518 60.088 35.9764V36.2332C60.6016 37.0036 60.3448 37.5171 59.8313 38.0307C58.8041 39.0579 57.777 39.5714 56.493 39.8282C55.7227 39.8282 54.9523 39.5714 54.4387 39.0579C53.1548 37.7739 52.3845 36.2332 51.8709 34.4357C51.3573 31.0975 52.1277 29.3 52.1277 29.0432C53.1548 27.2457 54.9523 25.705 57.2634 25.705C58.2905 23.6507 61.372 24.421 61.372 24.421C62.1423 24.6778 62.3991 24.6778 62.6559 25.1914C62.6559 25.1914 63.9398 23.1371 62.6559 22.3667C61.372 21.5964 58.5473 21.3396 58.5473 21.3396C58.5473 20.0557 56.493 19.0285 52.3844 19.7989C47.7623 20.5692 46.7352 18.7717 46.7352 18.7717C46.4784 21.0828 48.2759 22.11 48.7895 22.6235C46.9919 24.6778 44.4241 28.5296 43.9105 33.9221C43.3969 28.5296 40.8291 24.6778 39.0316 22.6235C39.5451 22.3667 41.3426 21.0828 41.0859 18.7717C41.0859 18.7717 40.0587 20.5692 35.4365 19.7989C31.5847 19.0285 29.2737 20.0557 29.2737 21.3396C29.2737 21.3396 26.449 21.5964 25.1651 22.3667C23.8812 23.1371 25.1651 25.1914 25.1651 25.1914C25.4219 24.9346 25.6787 24.6778 26.449 24.421C26.449 24.421 29.5304 23.6507 30.5576 25.705C32.8687 25.9617 34.6662 27.2457 35.6933 29.0432C35.6933 29.0432 36.7205 30.8407 35.9501 34.4357C35.6933 36.2332 34.6662 37.7739 33.3823 39.0579C32.8687 39.5714 32.0983 40.085 31.328 39.8282C30.044 39.5714 29.0169 39.0579 27.9897 38.0307C27.4762 37.5171 27.2194 37.0036 27.7329 36.2332V35.9764C29.0169 33.1518 27.9897 30.5839 25.9354 29.0432C24.3947 28.016 22.854 27.7593 21.0565 28.016C9.7579 29.5568 9.24433 41.1122 9.24433 44.7072C9.24433 54.7218 8.98755 61.9119 8.98755 63.1958C8.98755 65.2501 8.21719 65.7637 7.70361 66.0204C8.47397 66.534 14.3801 64.7365 15.664 62.939C15.664 62.939 15.9208 62.6822 16.1776 62.6822C19.7726 61.9119 19.7726 58.0601 19.7726 57.0329C22.5972 57.0329 23.8811 53.6947 24.1379 52.9243C24.3947 52.154 24.6515 51.3836 24.6515 50.6133C24.6515 52.154 26.9626 53.4379 29.5305 51.1268C29.5305 53.6947 32.6119 53.1811 34.1526 51.6404C34.4094 52.154 35.1798 53.4379 35.1798 53.4379C33.3823 53.6947 32.6119 54.2083 31.8415 54.9786C29.7872 56.7761 29.7872 59.6008 29.7872 60.8847C29.7872 60.8847 27.2194 63.4526 26.1922 64.4797C25.9354 64.7365 25.4219 64.9933 25.1651 65.2501C22.3404 62.1686 21.5701 63.4526 21.5701 63.4526C19.5158 62.6822 18.4886 63.9662 18.7454 64.7365C19.259 64.2229 20.0294 64.4797 20.5429 64.7365C17.7183 65.2501 18.4886 67.3044 19.259 67.5612C19.259 67.0476 19.5158 66.2772 20.2861 66.2772C20.2861 67.0476 20.7997 67.3044 21.3133 67.3044C22.5972 67.3044 24.9083 67.3044 25.6787 68.0747C26.1922 68.3315 25.9354 69.6155 26.1922 69.8722C26.449 70.129 26.9626 70.129 27.2194 70.129C27.2194 70.6426 27.2194 70.8994 26.7058 71.6697C28.7601 71.9265 30.044 70.129 29.2737 69.1019C28.7601 68.5883 27.4762 67.3044 27.4762 66.7908C27.4762 66.2772 27.9897 65.5069 28.5033 64.9933C29.5305 64.2229 30.5576 63.4526 31.5847 62.6822C31.8415 62.4254 32.0983 62.1686 32.6119 62.1686C32.8687 61.9119 33.3823 61.9119 33.639 62.1686C34.4094 62.4254 34.4094 62.4254 34.6662 62.1686C35.4366 61.6551 36.7205 60.6279 39.5451 60.3711C39.2883 60.3711 39.2883 60.6279 39.0316 60.8847C38.7748 61.1415 38.7748 61.3983 38.518 61.6551C38.2612 61.9118 38.2612 62.4254 38.0044 62.939C36.2069 67.3044 34.4094 71.413 32.6119 75.7783C32.0983 77.319 32.6119 78.3462 33.8958 79.1166C34.923 79.6301 36.2069 79.3733 36.9773 78.3462C36.7205 79.1165 36.7205 79.6301 36.9773 80.1437C37.234 80.6573 37.7476 81.1708 38.2612 81.4276C38.7748 81.6844 39.5451 81.6844 40.0587 81.6844C40.8291 81.4276 41.0859 81.1708 41.3426 80.4005C41.5994 81.6844 42.3698 82.7116 43.9105 82.7116Z" fill="#77787B"/>
<path d="M117.865 34.6925C120.176 34.6925 125.312 34.4357 128.136 34.179C128.136 34.6925 128.136 35.4629 128.136 35.7197C128.136 35.9765 128.136 36.7468 128.136 37.2604C125.569 37.0036 121.46 36.7468 120.176 36.7468C119.149 36.7468 115.811 36.7468 113.756 37.0036V47.7886H116.067C120.69 47.7886 129.934 48.559 129.934 56.5194C129.934 62.939 124.541 65.7637 117.608 65.7637C116.838 65.7637 114.013 65.7637 111.959 65.7637C111.188 65.7637 110.161 65.7637 109.391 65.7637C109.648 60.8848 109.648 54.4651 109.648 49.0726C109.648 44.1936 109.648 36.7468 109.391 34.4357C112.216 34.4357 116.838 34.6925 117.865 34.6925ZM113.756 63.1958C114.784 63.1958 116.324 63.1958 117.351 63.1958C122.487 63.1958 125.312 60.8847 125.312 56.2626C125.312 51.3836 121.717 49.8429 113.5 49.8429V63.1958H113.756Z" fill="#77787B"/>
<path d="M134.813 46.2479C136.61 44.1936 139.692 43.1665 142.26 43.1665C146.882 43.1665 149.963 45.4776 149.963 50.8701V61.6551C149.963 63.9662 150.477 64.4798 151.247 64.4798C151.504 64.4798 152.018 64.4798 152.274 64.223L152.531 65.2501C151.247 66.0205 149.963 66.0205 149.193 66.0205C147.652 66.0205 146.882 65.2501 146.625 64.223L146.368 63.1959C144.057 64.9934 141.489 66.0205 139.435 66.0205C135.583 66.0205 133.015 63.9662 133.015 60.3712C133.015 56.5194 135.84 54.7219 139.949 53.9515L144.314 53.1812C145.855 52.9244 146.625 52.4108 146.625 51.3837C146.625 46.7615 144.571 45.4776 141.233 45.4776C138.665 45.4776 136.867 46.2479 135.326 49.0726H134.813V46.2479ZM146.625 54.4651L143.8 54.9787C140.719 55.4923 137.124 56.5194 137.124 59.8576C137.124 62.4255 138.408 63.7094 141.233 63.7094C143.03 63.7094 144.571 63.1959 146.368 61.1416V54.4651H146.625Z" fill="#77787B"/>
<path d="M158.694 43.937C159.208 43.937 159.978 43.937 160.748 43.937C160.492 47.2752 160.235 52.6678 160.235 52.9245C162.032 52.9245 164.6 53.1813 166.141 53.1813C167.682 53.1813 170.249 53.1813 171.533 52.9245C171.533 52.6678 171.533 47.2752 171.277 43.937C172.047 43.937 173.074 43.937 173.588 43.937C174.101 43.937 174.872 43.937 175.642 43.937C175.385 47.2752 175.128 52.6677 175.128 54.9788C175.128 56.7763 175.128 62.6824 175.642 66.0206C174.872 66.0206 174.358 66.0206 173.588 66.0206C172.817 66.0206 172.047 66.0206 171.277 66.0206C171.533 62.6824 171.533 56.7763 171.533 55.4924C169.736 55.2356 166.911 55.2356 166.141 55.2356C164.857 55.2356 162.032 55.2356 160.235 55.4924C160.235 57.0331 160.235 62.6824 160.748 66.0206C159.978 66.0206 159.464 66.0206 158.694 66.0206C157.924 66.0206 157.153 66.0206 156.383 66.0206C156.64 62.6824 156.896 56.7763 156.896 54.9788C156.896 52.6677 156.897 47.2752 156.383 43.937C157.153 43.937 158.18 43.937 158.694 43.937Z" fill="#77787B"/>
<path d="M183.602 43.9367C184.116 43.9367 184.886 43.9367 185.657 43.9367C185.4 47.275 185.4 52.6675 185.4 53.4378H186.17C187.711 53.4378 194.901 45.2207 195.671 43.9367C196.185 43.9367 197.212 43.9367 197.726 43.9367C198.239 43.9367 199.266 43.9367 199.78 43.9367L189.508 53.181C190.792 54.7218 197.726 62.4254 200.807 65.7636C199.523 65.7636 198.753 65.7636 198.239 65.7636C197.469 65.7636 196.185 65.7636 195.415 65.7636C193.874 63.1957 188.995 57.5464 186.17 54.465H185.4C185.4 56.0057 185.4 62.4254 185.657 65.7636C185.143 65.7636 184.373 65.7636 183.602 65.7636C182.832 65.7636 182.062 65.7636 181.291 65.7636C181.548 62.4254 181.805 56.5193 181.805 54.7218C181.805 52.4107 181.805 47.0182 181.291 43.6799C182.062 43.9367 182.832 43.9367 183.602 43.9367Z" fill="#77787B"/>
<path d="M219.552 34.4357C221.093 34.4357 222.891 34.179 224.175 34.179C232.135 34.179 235.216 36.49 235.216 42.1393C235.216 49.0726 229.31 51.3836 222.12 51.3836C221.607 51.3836 220.066 51.3836 219.296 51.1269V58.5737C219.296 60.628 219.296 63.4526 219.552 65.5069C218.782 65.5069 218.012 65.5069 217.241 65.5069C216.471 65.5069 215.444 65.5069 214.93 65.5069C215.187 60.628 215.187 54.2083 215.187 48.8158C215.187 43.9368 215.187 36.49 214.93 34.179C216.728 34.179 218.525 34.4357 219.552 34.4357ZM221.35 49.0726C227.513 49.0726 230.851 46.7615 230.851 42.1393C230.851 37.774 227.513 36.7468 223.147 36.7468C222.377 36.7468 219.809 36.7468 219.296 36.7468V48.8158C220.066 49.0726 220.836 49.0726 221.35 49.0726Z" fill="#77787B"/>
<path d="M257.814 54.7222C257.814 61.3986 253.448 66.2776 246.772 66.2776C240.095 66.2776 235.987 61.3986 235.987 55.2358C235.987 48.0457 240.609 43.4236 247.285 43.4236C253.705 43.4236 257.814 48.0457 257.814 54.7222ZM240.095 54.979C240.095 59.8579 242.15 64.4801 246.772 64.4801C251.137 64.4801 253.705 60.1147 253.705 54.4654C253.705 49.8433 251.907 44.9643 247.029 44.9643C242.406 44.9643 240.095 49.8432 240.095 54.979Z" fill="#77787B"/>
<path d="M278.87 48.5589H278.357C276.816 45.991 274.762 45.2207 272.45 45.2207C267.315 45.2207 265.004 50.0996 265.004 54.9785C265.004 60.3711 268.085 64.7364 273.478 64.7364C275.275 64.7364 276.816 64.4796 279.384 61.655L279.897 62.1686L279.384 64.2229C277.329 65.5068 275.018 66.2772 272.194 66.2772C265.517 66.2772 261.152 61.655 261.152 54.9785C261.152 48.0453 266.031 43.6799 272.964 43.6799C275.275 43.6799 277.586 44.1935 280.411 45.4774L278.87 48.5589Z" fill="#77787B"/>
<path d="M300.954 48.5589H300.44C298.9 45.991 296.845 45.2207 294.534 45.2207C289.398 45.2207 287.087 50.0996 287.087 54.9785C287.087 60.3711 290.169 64.7364 295.561 64.7364C297.359 64.7364 298.9 64.4796 301.467 61.655L301.724 62.1686L301.211 64.2229C299.156 65.5068 296.845 66.2772 294.021 66.2772C287.344 66.2772 282.979 61.655 282.979 54.9785C282.979 48.0453 287.858 43.6799 294.791 43.6799C297.102 43.6799 299.413 44.1935 302.238 45.4774L300.954 48.5589Z" fill="#77787B"/>
<path d="M307.373 65.5072C307.117 65.5072 306.346 65.5072 306.089 65.5072C306.346 62.169 306.603 56.2629 306.603 54.4654C306.603 52.1543 306.603 46.7618 306.089 43.4236C306.86 43.4236 307.887 43.4236 308.401 43.4236C308.914 43.4236 309.684 43.4236 310.455 43.4236C310.198 46.7618 309.941 52.1543 309.941 54.4654C309.941 56.2629 309.941 58.8308 309.941 60.1147C312.252 57.2901 320.726 46.505 322.781 43.6804C323.294 43.6804 323.551 43.6804 324.065 43.6804C324.321 43.6804 325.348 43.6804 325.605 43.6804C325.348 47.0186 325.092 52.4111 325.092 54.7222C325.092 56.5197 325.092 62.4258 325.605 65.764C324.835 65.764 324.321 65.764 323.551 65.764C322.781 65.764 322.01 65.764 321.24 65.764C321.497 62.4258 321.753 56.5197 321.753 54.7222C321.753 52.4111 321.753 49.5865 321.753 48.8161C318.929 51.8975 310.968 61.9122 308.657 65.764C308.144 65.5072 307.63 65.5072 307.373 65.5072Z" fill="#77787B"/>
<path d="M331.768 65.5072C331.511 65.5072 330.741 65.5072 330.484 65.5072C330.741 62.169 330.741 56.2629 330.741 54.4654C330.741 52.1543 330.741 46.7618 330.484 43.4236C331.255 43.4236 332.282 43.4236 332.795 43.4236C333.309 43.4236 334.079 43.4236 334.85 43.4236C334.336 47.0186 334.336 52.4111 334.336 54.7222C334.336 56.5197 334.336 59.0876 334.336 60.3715C336.647 57.5468 345.121 46.7618 347.175 43.9372C347.689 43.9372 347.946 43.9372 348.459 43.9372C348.716 43.9372 349.743 43.9372 350 43.9372C349.743 47.0186 349.743 52.4111 349.743 54.7222C349.743 56.5197 349.743 62.4258 350 65.764C349.23 65.764 348.716 65.764 347.946 65.764C347.175 65.764 346.405 65.764 345.635 65.764C345.891 62.4258 345.891 56.5197 345.891 54.7222C345.891 52.4111 345.891 49.5865 345.891 48.8161C343.067 51.8975 335.106 61.9122 332.795 65.764C332.539 65.5072 332.282 65.5072 331.768 65.5072Z" fill="#77787B"/>
</svg>
